<svg width="100" height="100" viewBox="0 0 100 100" fill="none" xmlns="http://www.w3.org/2000/svg">
<path fill-rule="evenodd" clip-rule="evenodd" d="M77.3836 57.5866C76.2196 52.0696 72.0913 47.7886 66.5391 45.6559C65.4718 45.0521 64.4373 42.461 63.003 41.9865C62.7731 41.9104 63.136 42.5158 63.003 42.5519C62.5287 42.6809 61.9972 42.6943 61.4734 42.2287C60.5374 41.3964 60.2438 38.9649 59.6747 37.866C56.6732 32.0702 49.1793 34.3379 48.1753 40.745C47.4753 41.2015 46.4857 41.6036 45.7237 41.9714C44.9391 42.3502 44.2489 43.2675 43.4402 43.5955C42.7188 43.8882 41.5299 43.6809 40.8029 43.936C37.4591 45.1094 34.627 46.59 32.4066 49.59C31.9387 50.2227 31.4114 51.0006 30.9856 51.6397C28.7906 54.1675 27.2661 57.0007 25.8619 60.0404C21.9334 68.9625 20.8649 78.8412 19.9062 88.4541C19.928 90.136 18.8123 94.8 20.4624 95.6063C20.3638 95.7086 20.3996 95.9141 20.5825 95.9123C24.7666 95.87 28.9408 96.2446 33.06 96.9729C35.0473 97.3243 37.0241 97.8062 39.0485 97.8854C43.2508 97.8563 47.438 97.1519 51.6347 97.8185C56.6799 97.8185 62.8114 97.6714 68.4241 97.4556C73.6697 97.2539 78.9435 97.7095 84.1241 96.8171C84.5342 96.7522 84.7344 96.2518 84.6485 95.8933C84.0407 93.6777 83.7423 91.3973 83.4012 89.1296C83.4692 87.6751 83.3477 86.1566 82.8098 84.8018C81.4045 75.656 79.6024 66.5699 77.3836 57.5866Z" fill="white"/>
<path fill-rule="evenodd" clip-rule="evenodd" d="M75.6906 69.6081C75.5799 70.1458 75.4248 70.6836 75.2185 71.1929C75.0198 71.6844 74.7204 72.1248 74.5142 72.6106C74.4865 72.676 74.4412 72.7255 74.3866 72.7633L74.4036 72.8954L74.4193 73.0275C74.5222 73.9192 74.6379 74.8084 74.738 75.6999L74.7867 76.1459C74.9837 78.0074 75.2948 79.8597 75.5363 81.7163C75.7728 83.5342 76.0136 85.3522 76.2709 87.1676C76.5368 89.0393 76.8076 90.9084 77.1238 92.7725C77.2573 93.5598 77.3966 94.3464 77.5417 95.1324L77.6538 95.7339C78.8077 96.0116 79.123 97.6206 77.9481 98.2146C77.4149 98.4831 76.7297 98.4185 76.2902 97.9966C75.8335 97.5569 75.8145 96.764 75.7085 96.1684L75.6064 95.615C74.8424 91.4536 74.1792 87.2443 73.8692 83.0242C73.7895 81.9345 73.7224 80.8439 73.6788 79.7524C73.6374 78.7257 73.6572 77.6992 73.6413 76.6725L73.6361 76.3925C73.6118 75.2977 73.6319 74.2045 73.6604 73.1097C73.6637 72.9764 73.6696 72.843 73.6763 72.7087C73.6378 72.6634 73.6101 72.6097 73.5984 72.5577L73.5832 72.4889C73.5455 72.3119 73.5883 72.1047 73.7242 71.978C73.7828 71.2322 73.86 70.4873 73.8809 69.7423C73.8826 69.6811 73.9707 69.6828 73.9758 69.7423C74.0253 70.3765 74.1241 71.0124 74.2231 71.6475C74.8596 71.1357 75.33 70.2918 75.6076 69.5854C75.6277 69.5342 75.7025 69.5527 75.6906 69.6081ZM60.6311 39.9587C60.7367 40.4419 60.9455 40.8757 61.2256 41.2792C61.3591 41.4722 61.5108 41.6517 61.6927 41.8019C61.8488 41.9302 62.0266 42.0141 62.1925 42.1257C62.4341 42.0879 62.6865 42.1794 62.8559 42.3572L62.8291 42.0972C62.8206 42.0133 62.9599 41.9965 62.9759 42.0778C63.7095 45.7793 64.3786 49.4832 64.9578 53.2114L65.2117 54.8579L65.4506 56.4036C65.8472 58.9792 66.2309 61.5538 66.5198 64.1483C66.9047 67.6106 67.2283 71.0821 67.4648 74.5585C67.7021 78.0594 67.8481 81.5627 67.9521 85.0703C67.978 85.9546 68.0058 86.838 68.0325 87.7221L68.2117 86.665C68.3904 85.6077 68.5657 84.5494 68.716 83.4873C69.2552 79.6861 69.6863 75.858 69.8967 72.0242C70.0897 68.5158 70.0251 64.9378 69.1329 61.5199C68.908 60.66 68.633 59.8136 68.301 58.9889C67.9789 58.187 67.5395 57.4436 67.1931 56.6534C66.7906 55.7339 66.6698 54.8665 66.877 53.8766C67.0582 53.0141 67.376 52.2029 67.4329 51.3153C67.5395 49.6677 67.0036 48.0719 66.2464 46.6299C66.0467 46.2499 65.8362 45.8749 65.6165 45.5032C64.9516 44.3799 64.2018 43.2976 63.4237 42.2599C63.3817 42.2046 63.4706 42.1433 63.5159 42.1886C64.2253 42.89 65.001 43.5796 65.6393 44.3455C65.9495 44.718 66.2522 45.0979 66.539 45.4881C69.6855 46.0141 72.3891 47.9746 74.2373 50.5636C76.3347 53.5016 77.3955 57.0376 78.1805 60.5199C79.0535 64.39 79.7898 68.2952 80.5738 72.1844C81.3855 76.2088 82.1931 80.2331 83.0099 84.2566C83.4158 86.254 83.8217 88.2516 84.2267 90.2499C84.4322 91.2616 84.6478 92.2709 84.8733 93.2792C84.9891 93.796 85.1132 94.312 85.2205 94.8304C85.3412 95.4151 85.2288 95.7892 84.8331 96.2188C84.6871 96.3782 84.4565 96.3757 84.2753 96.291L84.2187 96.2643L84.164 96.2379C83.9398 96.1277 83.7641 96.0135 83.6247 95.7683C83.4711 95.499 83.4468 95.2004 83.3941 94.9009C83.2967 94.3496 83.2003 93.7985 83.1031 93.2465C82.9577 92.421 82.7997 91.5979 82.6388 90.7749L81.8318 86.6623C81.6166 85.5657 81.401 84.4692 81.1843 83.3732C80.4102 79.4537 79.6354 75.5351 78.8606 71.6165C78.1167 67.8538 77.4584 64.0653 76.6115 60.3245L76.5633 60.1137L76.5144 59.9033C75.757 56.6784 74.6989 53.5589 72.779 50.8262C71.3014 48.7247 69.2494 46.848 66.8325 45.8983C67.0028 46.1433 67.1663 46.3933 67.3223 46.6484C68.3018 48.249 69.017 50.1492 68.8493 52.0552C68.7672 52.9865 68.4133 53.9017 68.4468 54.8405C68.4778 55.6744 68.9936 56.4068 69.3501 57.1323C70.1592 58.7767 70.7446 60.5242 71.122 62.3169C71.8793 65.9167 71.8768 69.6207 71.6159 73.275C71.3324 77.2474 70.7941 81.2188 70.1811 85.1525C69.8666 87.1701 69.4482 89.171 69.1277 91.1853C68.9693 92.1785 68.7537 93.1693 68.565 94.1576L68.4751 94.6297C68.4248 94.8918 68.3725 95.153 68.3122 95.4114L68.275 95.5661V95.5938C68.2733 95.7843 68.2212 95.942 68.1374 96.0678C68.0225 96.436 67.88 96.7952 67.6905 97.14C67.5932 97.3162 67.4522 97.4151 67.2988 97.4512C67.1445 97.8044 66.7948 98.0761 66.3772 98.0746L60.8852 98.0536C57.6951 98.0409 54.5051 98.0199 51.3151 98.0023C50.5101 97.9982 49.7059 97.9831 48.9017 97.9621C48.1478 97.9412 47.4249 97.8506 46.6794 97.7566C45.8374 97.6509 45.3812 97.0544 45.507 96.213C45.5347 96.0275 45.5648 95.843 45.5934 95.6584C45.4257 95.7138 45.2261 95.6878 45.0911 95.5561L44.9645 95.4322C44.789 95.2585 44.6321 95.088 44.5208 94.8563C44.406 94.6182 44.3128 94.3665 44.2113 94.1232C43.9924 93.5997 43.7795 93.0745 43.5723 92.5469C43.1573 91.4915 42.7422 90.4319 42.3563 89.3656C41.5925 87.254 40.9165 85.1105 40.3287 82.9428C39.2804 79.0754 38.5223 75.1333 38.0443 71.1559L37.93 70.208L37.8968 69.928C37.7155 68.3864 37.5629 66.8209 37.635 65.2826C37.6796 64.3194 37.8287 63.3489 38.1886 62.4495C38.5206 61.6198 39.033 60.9101 39.5202 60.1685L39.576 60.0829L39.632 59.9952C40.0581 59.3216 40.3972 58.6174 40.4141 57.7994C40.4314 56.9692 40.1896 56.1614 39.9193 55.3842L39.8519 55.1925L39.8067 55.0657C39.2317 53.4595 38.5773 51.876 38.7931 50.1282C39.1119 47.5544 40.6716 45.4797 42.634 43.8799C40.8888 44.2256 39.1614 44.9084 37.6368 45.7742C35.8362 46.7977 34.2152 48.1484 32.8173 49.6727C30.1757 52.5535 28.2897 56.0099 26.7459 59.5787C25.1299 63.3136 23.9315 67.2272 23.0284 71.192C22.1202 75.1794 21.5122 79.2306 21.097 83.2977C20.89 85.322 20.7272 87.3513 20.5923 89.3816C20.5235 90.4219 20.4715 91.4638 20.391 92.5024C20.3105 93.5401 20.2744 94.5938 20.0211 95.6039C19.9029 96.0745 19.1054 96.1224 19.0199 95.6039C18.8303 94.446 18.8833 93.2487 18.9362 92.0762L18.941 91.9697C18.9931 90.8019 19.061 89.6349 19.1414 88.468C19.3059 86.0829 19.5255 83.7012 19.8123 81.3271C20.8178 72.9932 22.672 64.7029 26.309 57.0955C28.0214 53.5125 30.2194 50.0309 33.2769 47.4437C34.7326 46.2129 36.3738 45.2305 38.1424 44.5192C39.7241 43.8824 41.3308 43.5813 43.0114 43.5821C43.8542 42.9361 44.759 42.3732 45.6629 41.8924C45.7174 41.8631 45.7745 41.9336 45.7293 41.9789C45.7058 42.0016 45.6831 42.025 45.6597 42.0469C45.762 42.0536 45.8675 42.1014 45.9623 42.2012C46.2945 42.5493 46.5746 42.9848 46.8252 43.4369C47.2068 43.9135 47.5707 44.4058 47.9515 44.8773C48.5611 45.6323 49.185 46.3765 49.8166 47.1147C50.8772 48.3554 51.9723 49.5727 53.1144 50.7409L53.3052 50.9352C53.8971 51.5351 54.4968 52.2532 55.1969 52.728L55.2343 52.7529C55.5297 52.9454 55.7392 52.9803 55.9911 52.6928C56.2201 52.4311 56.4107 52.1274 56.6067 51.8388L56.652 51.7725C57.6524 50.3187 58.5799 48.8111 59.4194 47.2591C59.802 46.5528 60.166 45.8362 60.5113 45.1118L60.6144 44.8942C60.8022 44.4948 61.006 44.1031 61.1611 43.6919C61.1971 43.5955 61.2323 43.499 61.2667 43.4034C60.7384 43.0569 60.3293 42.3069 60.1808 41.7197C60.0265 41.1098 60.1045 40.4839 60.3795 39.9261C60.4315 39.8212 60.6059 39.8471 60.6311 39.9587ZM34.5684 64.7431C34.4953 67.062 34.451 69.3833 34.3419 71.7004L34.3042 72.4914C34.4744 72.6811 34.5742 72.9 34.4945 73.2004C34.4635 73.3153 34.3721 73.4194 34.258 73.4579L34.2224 74.1934C34.0606 77.5025 33.8709 80.8048 33.5242 84.1056C33.0907 88.2365 32.5892 92.3605 32.0886 96.484C32.0174 97.0678 31.6114 97.5308 30.9799 97.4454C30.341 97.3589 30.0819 96.8027 30.1657 96.223C30.4953 93.9487 30.8122 91.6726 31.0899 89.3908L31.406 86.7911C31.8024 83.5413 32.2082 80.2921 32.6757 77.0527C32.871 75.6987 33.074 74.3455 33.2777 72.9923L33.2065 72.9C32.9154 72.5217 32.6144 72.1517 32.3167 71.7793C31.7448 71.0611 31.1804 70.3488 30.6563 69.5971C30.6302 69.5594 30.6831 69.504 30.7208 69.5326C31.4554 70.0754 32.1507 70.6558 32.8501 71.2457L33.4623 71.7641C33.8145 69.426 34.1633 67.0871 34.4744 64.7431C34.482 64.6845 34.57 64.6802 34.5684 64.7431ZM45.1355 42.5519C44.6935 42.9688 44.2416 43.3766 43.7962 43.791L43.6331 43.9435L43.4707 44.0967C42.688 44.8393 41.9381 45.6122 41.3132 46.4999C40.166 48.1299 39.4825 50.1172 39.9596 52.1073C40.3555 53.7557 41.2637 55.2499 41.5078 56.9395C41.6301 57.786 41.5707 58.6366 41.2519 59.436C40.9265 60.2516 40.4066 60.9504 39.9395 61.6861C38.9248 63.2851 38.7864 65.0401 38.8871 66.8925C38.9928 68.8271 39.2149 70.7624 39.4893 72.6794C40.0443 76.5636 40.8812 80.4076 41.989 84.1719C42.5434 86.0569 43.1983 87.9017 43.85 89.7541C44.1744 90.6761 44.5527 91.5762 44.9426 92.4721C45.148 92.9437 45.3586 93.4125 45.5724 93.8807C45.4935 93.2197 45.4935 92.541 45.455 91.8841C45.3996 90.9428 45.3292 90.0032 45.2646 89.0628C45.133 87.1542 45.0156 85.244 44.9108 83.3338C44.5393 76.5217 44.2659 69.7037 44.286 62.8808C44.2961 59.4688 44.3657 56.0569 44.5125 52.6483C44.5813 51.0431 44.7145 49.4395 44.8349 47.8366L44.8605 47.4932C44.967 46.0544 45.0944 44.6123 45.3132 43.1861C45.2485 43.0399 45.1922 42.8918 45.1505 42.7399L45.1355 42.6828L45.1464 42.6844C45.1364 42.6399 45.133 42.5955 45.1355 42.5519ZM48.9579 36.6895C48.967 36.65 49.0232 36.6534 49.0333 36.6895C49.2823 37.5284 49.1943 38.4512 48.9797 39.2952C48.864 39.7524 48.6996 40.1962 48.5008 40.624L48.4313 40.7738C48.261 41.1381 48.0693 41.5136 47.7376 41.7406C47.5994 41.8354 47.3519 41.8413 47.2135 41.7406L47.1429 41.6871C47.1313 41.678 47.1199 41.6688 47.1087 41.6593C46.9796 41.551 46.9158 41.3119 46.9754 41.1542C47.1288 40.7473 47.4769 40.4487 47.7175 40.0863C47.9306 39.7641 48.1193 39.4244 48.276 39.0712C48.614 38.3069 48.7658 37.4957 48.9579 36.6895Z" fill="#0C0C0C"/>
<path fill-rule="evenodd" clip-rule="evenodd" d="M68.0158 16.1144C65.0655 8.34959 59.7473 2.66444 50.7817 6.23524C50.5245 6.06007 50.1889 6.01309 49.8673 6.21821C44.9834 9.28608 41.4664 14.2046 39.9423 19.7508C39.0147 19.9273 38.1134 20.235 37.3083 20.7396C35.5587 21.8363 34.3815 23.5815 33.2781 25.2811C32.9463 25.7921 33.2535 26.6381 33.8771 26.7541C34.148 26.8046 34.4164 26.8347 34.6833 26.8425C34.6183 27.0785 34.5328 27.3066 34.4239 27.5157C34.0295 28.2727 34.7746 29.0765 35.4729 28.8696C35.5504 28.9106 35.6315 28.9443 35.7156 28.9696C35.7252 29.3985 35.9455 29.9726 36.3815 30.0592C37.0866 30.2106 38.0236 29.6707 37.8573 28.8818C38.0703 28.9193 38.2825 28.924 38.4894 28.898C38.5125 29.3088 38.5053 29.7375 38.562 30.1164C38.7473 31.9024 40.531 33.102 42.2321 32.5587C42.3364 33.1152 42.4589 33.8971 43.0067 34.1989C43.6473 35.9965 44.7533 38.0479 46.5648 38.867C46.4036 39.2803 46.491 39.7831 46.9768 40.0597C50.2927 41.9509 54.2726 42.5909 58.0215 41.8878C59.5197 41.7985 60.9795 41.4598 62.3806 40.7383C63.4024 40.2121 64.3417 39.5439 65.2586 38.855C66.176 38.1659 67.1569 37.495 67.8892 36.6003C68.6845 35.6285 69.0548 34.4852 69.295 33.2684C70.396 27.745 70.0158 22.3216 68.0158 17.06C65.5401 10.547 70.4905 22.6278 68.0158 16.1144Z" fill="white"/>
<path fill-rule="evenodd" clip-rule="evenodd" d="M53.7528 4.72208C55.2627 4.61546 56.8001 4.87007 58.238 5.32552C60.5312 6.0517 62.6373 7.33324 64.3676 9.00162C66.1508 10.721 67.4697 12.8409 68.2716 15.1822C69.2387 18.0059 69.3835 21.0208 69.6557 23.9684C69.7932 25.4576 70.0198 26.9242 70.2553 28.399L70.2926 28.6319C70.5227 30.0688 70.6522 31.5221 70.3343 32.9567C69.8058 35.3411 68.2215 37.3651 66.3409 38.8607C62.4778 41.933 56.4639 43.8061 51.9659 40.979C51.27 40.5415 51.9294 39.423 52.6087 39.8788C53.0868 40.1997 53.5933 40.481 54.1365 40.6752C56.4059 41.4865 58.8983 41.1975 61.1412 40.4428C63.3515 39.6991 65.4724 38.4425 67.1033 36.7656C68.8164 35.0043 69.7658 32.8287 69.6286 30.3532C69.5468 28.8803 69.2114 27.4347 69.0252 25.9738C68.8603 24.6799 68.7614 23.3789 68.6474 22.0798L68.6057 21.6125C68.364 18.9656 68.017 16.2462 66.8132 13.8436C65.8005 11.8223 64.3178 10.024 62.535 8.63526C60.6684 7.18131 58.439 6.16445 56.0998 5.78517C53.349 5.3392 50.7158 6.15019 48.4212 7.65992C46.3861 8.99885 44.6364 10.7881 43.2948 12.8183C42.6443 13.8027 42.09 14.854 41.6114 15.9321C41.1604 16.9478 40.8495 18.0124 40.4868 19.0594C40.7853 19.0505 41.0887 19.062 41.3968 19.0961C42.977 19.2712 44.4493 20.0905 45.3866 21.3824C46.5321 22.961 46.2225 24.8988 46.6699 26.6941C46.7045 26.8334 46.6456 26.9698 46.5263 27.0469C45.848 27.4855 44.9401 27.5001 44.2835 27.0062C43.7137 26.5776 43.4462 25.8027 43.6769 25.1256C43.707 25.0374 43.8355 25.053 43.8391 25.1476C43.8824 26.2999 44.9511 27.1872 45.9986 26.6389C45.5492 25.0908 45.7857 23.3619 44.8667 21.9635C43.2401 19.4887 39.8739 19.3864 37.5097 20.7816C36.2654 21.5157 35.2805 22.6195 34.5472 23.8542L34.3359 24.2127C34.0548 24.6916 33.7571 25.2334 33.6988 25.7608C33.6651 26.0651 33.7774 26.3511 34.1264 26.1978C34.4088 26.0738 34.6274 25.7844 34.7951 25.5357C35.0812 25.1114 35.7385 25.478 35.5022 25.9297L35.4942 25.9445C35.1503 26.5539 34.9386 27.2255 34.8998 27.9252L34.8899 28.119C34.8834 28.2602 34.8787 28.4609 34.9086 28.4682C34.9444 28.477 35.1932 28.1897 35.2347 28.1499C35.4342 27.9582 35.6398 27.8014 35.9176 27.7504C36.2828 27.6834 36.6513 28.1354 36.3343 28.4318L36.3211 28.4437C36.0381 28.6898 36.0507 29.1805 36.3632 29.4106C36.8043 29.7354 37.3474 29.2053 37.4114 28.7688L37.4136 28.7527C37.4702 28.2811 38.1249 28.2645 38.1604 28.7527C38.2377 29.8123 36.9767 30.7004 36.0172 30.1658C35.6379 29.9546 35.3967 29.5677 35.3211 29.1531C35.2 29.2171 35.0694 29.2615 34.9313 29.2738C34.4816 29.3136 34.1619 28.9973 34.0892 28.5728C34.0045 28.0783 34.0547 27.5488 34.185 27.0352C33.9408 27.0941 33.6839 27.0716 33.4257 26.9225C32.6446 26.4716 32.8689 25.4686 33.1638 24.7914C34.423 21.9009 37.0317 19.2782 40.2636 19.07C40.2813 18.56 40.3504 18.0779 40.4635 17.5672C41.5689 12.5723 45.1501 7.94717 49.8123 5.78542C51.0581 5.20774 52.3793 4.81915 53.7528 4.72208ZM41.5266 24.6748L41.5709 24.6648C42.0746 24.5562 43.4001 24.4287 43.2404 25.2766C43.2328 25.3165 43.1749 25.3116 43.1646 25.2766C43.0081 24.7435 41.9451 25.1698 41.6347 25.2982C41.2069 25.475 40.7848 25.7359 40.4354 26.0392C39.6705 26.7033 39.1578 27.6392 39.0798 28.6556C39.0025 29.6639 39.2949 30.753 40.022 31.4824C40.3784 31.8399 40.8333 32.0826 41.3444 32.1004C41.8035 32.1164 42.3108 31.7588 42.7344 31.9682C42.818 32.0095 42.8841 32.1228 42.8766 32.2161C42.8623 32.3927 42.7833 32.5302 42.6658 32.6368C43.375 33.9299 43.9555 35.2985 44.8603 36.4743C45.3143 37.0643 45.8288 37.6106 46.4114 38.0755C46.6883 38.2966 46.9893 38.4907 47.2998 38.6612C47.6636 38.8613 47.9784 38.9865 48.238 39.3254C48.4594 39.6144 48.2379 40.1732 47.8729 40.2231C47.0135 40.3402 46.1782 39.6451 45.5473 39.1243C44.9169 38.604 44.3721 37.9623 43.9218 37.2813C43.0572 35.9737 42.4658 34.431 42.2293 32.8704C41.9547 32.9575 41.6456 32.9841 41.4131 32.9846C40.7943 32.986 40.2036 32.7633 39.7173 32.3871C37.9373 31.0098 37.7395 28.1821 38.9956 26.3988C39.5967 25.5456 40.5101 24.9151 41.5266 24.6748ZM41.5378 27.9544C41.9505 27.9182 42.3629 27.9834 42.7509 28.1242L42.9108 28.1822C43.2486 28.3057 43.6082 28.451 43.8522 28.7044C44.225 29.0916 43.8538 29.7626 43.3228 29.6142C42.7357 29.4501 42.2585 28.9555 41.6716 28.748C41.147 28.5626 40.5527 28.5888 40.0872 28.9081C40.0257 28.9503 39.9448 28.8671 39.985 28.8059C40.3412 28.2633 40.9034 28.0101 41.5378 27.9544Z" fill="#0C0C0C"/>
<path fill-rule="evenodd" clip-rule="evenodd" d="M55.7302 31.248C57.1678 31.0735 58.5612 31.5138 59.9665 31.7357C60.7085 31.8528 61.4514 31.9402 62.2023 31.9728C62.3533 31.9794 62.5044 31.9832 62.6556 31.9863C62.6696 31.8532 62.7441 31.731 62.9054 31.6578C63.2361 31.5078 63.5008 31.4402 63.8639 31.4547C64.1963 31.4678 64.5298 31.502 64.8571 31.5619C65.4514 31.6709 66.0484 31.9183 66.4831 32.348C67.4891 33.3424 67.336 34.9396 66.5586 36.0227C64.9525 38.2608 62.0212 38.3646 59.5106 38.3354L59.2789 38.3324C56.993 38.2997 53.7224 38.6407 52.6839 36.0389C52.302 35.0821 52.355 33.9731 52.8226 33.0554C53.3804 31.9609 54.5544 31.3908 55.7302 31.248ZM62.8708 34.9744L62.8503 34.9752C61.7963 35.0159 60.7426 35.0445 59.688 35.0631C59.7196 35.334 59.7518 35.605 59.7886 35.8753C59.8175 36.0881 59.8485 36.3006 59.8807 36.5128C59.8943 36.6027 59.9443 36.7422 59.9302 36.8312L59.9251 36.8664C59.9792 36.8909 60.0284 36.9303 60.0649 36.9876C60.0776 37.0074 60.0869 37.0274 60.0961 37.0473C60.9148 37.0537 61.7958 37.0378 62.6305 36.889L62.6321 36.8708C62.6473 36.7642 62.6916 36.6924 62.7505 36.6431C62.8092 36.303 62.8038 35.9405 62.8265 35.6031C62.8407 35.3934 62.856 35.184 62.8708 34.9744ZM58.8826 35.0775C58.123 35.0904 57.363 35.1004 56.6035 35.0911L56.2587 35.0858C56.3315 35.4765 56.4107 35.866 56.4766 36.2594C56.5453 36.6694 56.1845 36.93 55.8723 36.9195C55.9074 36.9252 55.9424 36.9312 55.9774 36.9361C56.9529 37.0741 57.9657 37.0375 58.9557 37.0364C58.9024 36.7254 58.924 36.3746 58.916 36.115L58.9145 36.0748C58.8994 35.7422 58.8887 35.4098 58.8826 35.0775ZM53.7226 35.0058C53.749 35.209 53.8003 35.4078 53.877 35.593C54.2013 36.3752 54.9447 36.7403 55.7312 36.894C55.5948 36.8468 55.4864 36.7336 55.459 36.5396C55.3908 36.0572 55.3663 35.5667 55.3645 35.0769C54.8163 35.0718 54.2644 35.0601 53.7226 35.0058ZM65.7295 34.8387C65.3393 34.9309 64.8857 34.8886 64.5028 34.906C64.1441 34.9223 63.7852 34.9365 63.4264 34.9511C63.4433 35.1961 63.4598 35.441 63.4777 35.6858C63.5008 36.0023 63.503 36.3368 63.5636 36.6519C64.2856 36.4054 64.9325 36.0101 65.4178 35.378C65.5387 35.2205 65.647 35.0357 65.7295 34.8387ZM55.5653 32.5315C54.9156 32.6854 54.3007 33.0105 53.9703 33.6052C53.7742 33.9581 53.6879 34.3764 53.7044 34.7886C54.2536 34.7246 54.8121 34.7004 55.368 34.6803C55.3698 34.5802 55.3722 34.4802 55.3752 34.3803L55.3838 34.1245C55.3989 33.6366 55.4065 33.0238 55.5653 32.5315ZM58.9281 32.591L58.6421 32.5589C57.8477 32.4683 57.0537 32.3733 56.2593 32.4277C56.1443 32.4357 56.0276 32.4482 55.9106 32.4654C56.051 32.9723 56.0392 33.5676 56.0979 34.0694C56.1205 34.2634 56.1491 34.4558 56.1809 34.6475L56.3187 34.6411C57.1711 34.5948 58.0244 34.5664 58.8775 34.5326C58.8775 34.3723 58.8783 34.212 58.8809 34.0516L58.884 33.8912C58.8938 33.4815 58.8673 33.02 58.9281 32.591ZM62.9172 32.526C62.0852 32.6603 61.2253 32.6889 60.408 32.6899C60.0816 32.6903 59.7553 32.6702 59.4292 32.6413C59.4505 32.815 59.4615 32.9907 59.4775 33.162C59.5097 33.5081 59.5465 33.8537 59.5865 34.199L59.6222 34.5011C60.6708 34.4536 61.7193 34.4022 62.7676 34.3489L62.9156 34.341L62.957 33.7603C62.9853 33.3732 63.0163 32.9861 63.0602 32.6007L63.0273 32.5888C62.9886 32.5729 62.952 32.551 62.9172 32.526ZM63.2786 32.6701C63.3244 33.2175 63.3498 33.7672 63.3835 34.3155L64.0746 34.2786C64.1898 34.2723 64.3049 34.2659 64.4201 34.2593C64.868 34.2335 65.4434 34.0978 65.8862 34.2244C65.92 33.8217 65.8049 33.4294 65.4417 33.1589C64.804 32.6838 63.9919 32.853 63.2786 32.6701ZM60.9173 27.7763C61.9465 27.1867 64.5286 26.5841 64.6921 28.4369C64.7673 29.2895 64.1337 29.9959 63.3938 30.3112L63.366 30.3228C62.6721 30.6082 61.4421 30.9305 60.8416 30.3116C60.3418 29.7965 61.0047 28.873 61.6258 29.2949C61.9449 29.5117 62.6168 29.352 62.9729 29.2488L62.9952 29.2423C63.3795 29.1293 63.8919 28.7677 63.733 28.2943C63.5924 27.8755 62.9939 27.799 62.6192 27.7854C62.0597 27.7653 61.5153 27.8953 60.961 27.9376C60.8732 27.9443 60.8461 27.8171 60.9173 27.7763ZM65.1803 24.7971C66.5771 24.7316 67.446 26.2573 67.1248 27.5074C67.0693 27.7231 66.8281 27.9348 66.5953 27.9106L66.5367 27.9052C66.5069 27.9023 66.4769 27.8985 66.4494 27.8909C66.2283 27.8297 66.0302 27.5997 66.0463 27.3612L66.0506 27.2918C66.0831 26.7012 66.0192 26.0209 65.3176 25.8779C64.7226 25.7565 64.3905 26.3294 64.3834 26.8568C64.3821 26.9504 64.2769 27.0158 64.1941 26.9654C63.764 26.7036 63.6896 26.1827 63.8538 25.7341C64.0621 25.1658 64.5832 24.825 65.1803 24.7971ZM54.815 25.1243C55.8315 24.785 56.9281 25.327 57.4203 26.226C57.593 26.276 57.7654 26.4092 57.7414 26.613C57.7068 26.9063 57.6546 27.0912 57.4513 27.3136C57.1334 27.6615 56.5379 27.4837 56.4057 27.0554L56.4001 27.036C56.25 26.4824 55.6409 26.1172 55.086 26.3109C54.4377 26.5373 54.4565 27.2222 54.0018 27.6212C53.9484 27.6681 53.8843 27.6755 53.8203 27.6446C53.3373 27.4111 53.4241 26.7084 53.5963 26.3062C53.8221 25.7785 54.261 25.3091 54.815 25.1243ZM53.4307 22.0364C54.2544 21.1956 56.4022 20.3821 56.9656 21.9347C57.073 22.2304 56.8445 22.6291 56.5367 22.6904C56.0327 22.7908 55.5856 22.5719 55.0849 22.6112C54.6796 22.6431 54.2569 22.7786 53.9329 23.0298C53.0354 23.7254 52.838 24.902 52.2126 25.7874C52.1822 25.8305 52.1231 25.8124 52.1175 25.7616C51.9751 24.4726 52.5285 22.9572 53.4307 22.0364ZM64.1727 21.2087C64.7193 21.0156 65.3383 21.0322 65.8878 21.2035C66.4412 21.3761 66.9493 21.704 67.3408 22.1323C67.5184 22.3268 67.6828 22.5414 67.8146 22.7698C67.8846 22.8909 67.9583 23.141 68.0378 23.2899C68.4684 23.5386 68.6525 24.1053 68.267 24.5084L68.2496 24.5261L68.198 24.5773C67.9908 24.7825 67.6783 24.8714 67.3955 24.7894C66.7625 24.6062 66.6856 24.1075 66.4665 23.5781C66.3217 23.2285 66.0738 22.9191 65.7731 22.6918C65.0626 22.1549 63.8975 21.9838 63.0421 22.2368C62.9965 22.2504 62.943 22.1923 62.9755 22.1502C63.1376 21.9401 63.231 21.7677 63.448 21.5983C63.6683 21.4263 63.9087 21.302 64.1727 21.2087Z" fill="#0C0C0C"/>
<path fill-rule="evenodd" clip-rule="evenodd" d="M66.6359 15.217C67.1206 15.0508 67.5072 15.5551 67.4141 15.9946C67.3042 16.5122 66.7642 16.9277 66.4061 17.2925C66.0304 17.6768 65.6472 18.0534 65.2497 18.4159C64.4907 19.1089 63.7041 19.7615 62.8747 20.3697L62.6211 20.5556C61.8609 21.1121 61.1029 21.6556 60.2885 22.1373C59.8474 22.3974 59.4021 22.6491 58.9509 22.8915C58.79 22.9779 58.5937 23.1112 58.3917 23.2103C59.1304 23.7808 59.699 24.6516 59.8222 25.4628C60.1275 27.4779 58.8293 29.3454 56.9978 30.0878C56.0846 30.4578 55.0682 30.5652 54.0921 30.4536C53.0992 30.3403 52.0929 30.0466 51.448 29.233C50.8752 28.5107 50.669 27.5888 50.6279 26.6835C50.6086 26.2539 50.6128 25.831 50.7033 25.4511C50.3084 25.4544 49.9134 25.4528 49.5217 25.457C48.554 25.4662 47.5845 25.4705 46.616 25.4435C45.6172 25.415 44.6235 25.3706 43.6281 25.2817C43.1912 25.2422 42.7568 25.1776 42.3223 25.1155C41.9006 25.056 41.4351 25.0333 41.041 24.8605C41.0142 24.8496 41.0253 24.811 41.0486 24.8034C41.4687 24.6675 41.9459 24.6918 42.3836 24.665L42.8103 24.6391C43.1656 24.6179 43.5207 24.5984 43.8771 24.5869C44.7004 24.5598 45.5231 24.5532 46.3462 24.5391L46.699 24.5325C47.6676 24.5132 48.6362 24.5023 49.6048 24.4712C50.0065 24.4586 50.409 24.4352 50.8124 24.4133C50.8593 24.3067 50.9282 24.2094 50.9943 24.1147C51.1922 23.8311 51.4438 23.5811 51.7046 23.3546C52.2387 22.8881 52.8401 22.5417 53.511 22.3093C54.1758 22.0798 55.1481 21.966 55.8515 21.9808C56.5548 21.9956 57.5571 22.0948 57.8792 22.6701C57.9128 22.7296 58.5258 22.6147 58.7078 22.4753C59.1329 22.1508 59.5505 21.8169 59.9605 21.4746C60.7221 20.8378 61.5052 20.2112 62.2265 19.53C62.9703 18.8269 63.7083 18.1122 64.4161 17.3739C64.7717 17.0039 65.1264 16.6331 65.471 16.2539C65.8233 15.8672 66.126 15.3907 66.6359 15.217Z" fill="#0C0C0C"/>
</svg>
