<svg width="100" height="100" viewBox="0 0 100 100" fill="none" xmlns="http://www.w3.org/2000/svg">
<path fill-rule="evenodd" clip-rule="evenodd" d="M50.0399 34.144C51.1669 33.8319 52.4625 33.8682 53.6188 33.948C54.7931 34.0291 56.0531 34.1682 57.155 34.6068C58.1129 34.9881 58.9207 35.6293 59.4129 36.5481C59.8175 37.3034 60.0073 38.1317 60.1262 38.9731C60.1748 39.3174 60.2156 39.6625 60.2543 40.008L60.3339 40.7267C60.3651 41.0015 60.3923 41.2076 60.447 41.5142C60.5982 42.3623 60.8088 43.0708 61.2789 43.6879C62.4174 45.1816 64.2765 45.6816 65.9671 46.3192C67.0489 46.7272 67.9056 47.4611 68.1433 48.6404C68.3726 49.778 77.0912 59.3226 77.9472 60.1272L77.9707 60.1489C78.6346 60.7469 78.5564 61.871 78.6494 62.6917C78.7489 63.5717 78.8437 64.4523 78.9337 65.3332C79.1163 67.1228 79.2791 68.9144 79.4219 70.7076C79.9803 77.7205 80.2337 84.7578 80.1798 91.7926L80.1764 92.1908C80.1681 93.0836 80.1748 93.9803 80.1348 94.8722C80.0963 95.7295 79.837 96.5874 79.0429 97.0352C78.3073 97.45 77.3771 97.4135 76.555 97.4549L76.5058 97.4575C75.6237 97.5058 74.7412 97.5454 73.8583 97.5781C70.2701 97.7109 66.6787 97.7253 63.0884 97.7087C55.9659 97.6759 48.8363 97.5193 41.7205 97.9182C39.9066 98.0199 34.1239 97.402 32.3158 97.5781C30.5875 97.7463 32.0704 98.5942 31.0027 98.5384C27.4915 98.3546 24.161 97.5709 20.7969 96.6269C20.3767 96.509 20.0553 96.101 20.0606 95.66C20.1231 90.8162 20.2598 85.9737 20.4734 81.1342C20.6637 76.8233 20.9144 72.5151 21.2255 68.2113C21.3607 66.3405 21.5073 64.4705 21.6653 62.6015L21.7337 61.8006C21.8229 60.7677 21.8742 59.7159 22.0773 58.6973C22.2781 57.69 22.7337 56.8164 23.3944 56.0358C23.9872 55.3356 30.6992 49.8537 32.3158 48.8159C33.863 47.8224 35.4878 46.9843 37.0763 46.0636C37.7371 45.6806 38.3718 45.8184 38.9363 45.3482C39.234 45.1003 43.5527 43.4302 44.7178 42.8791L44.7522 42.8628C45.644 42.4348 46.4646 41.9707 47.0809 41.2306C47.2874 40.9825 47.6926 39.4195 47.6933 38.9201C47.6948 38.028 47.6272 37.0882 47.8962 36.224C48.2179 35.1906 48.9933 34.4337 50.0399 34.144ZM51.9506 57.1467L45.0497 70.5905H49.537L46.3205 78.0601H53.3842L50.8785 88.5227L65.208 70.5905H59.8308L65.208 63.5302H61.4785L65.208 57.551L51.9506 57.1467Z" fill="white"/>
<path fill-rule="evenodd" clip-rule="evenodd" d="M75.132 64.7064C75.1161 64.7223 75.0993 64.7383 75.0834 64.7551C75.1018 64.7291 75.1178 64.7021 75.132 64.6754V64.7064ZM61.7206 60.7902C61.1009 61.5823 60.4451 63.1938 59.843 64C59.7566 64.1157 59.6719 64.2316 59.588 64.3481C59.3381 64.698 59.6719 65.2332 60.0828 65.2106C60.9038 65.1669 61.724 65.1058 62.5442 65.0437C60.8594 66.9219 59.4605 69.2551 57.9133 71.2449C57.8084 71.3783 57.7053 71.5126 57.6021 71.6468C57.2105 72.1577 57.603 72.3893 58.138 72.2516C58.2487 72.2232 58.3594 72.1947 58.4701 72.167C59.2484 71.9673 60.0258 71.7677 60.804 71.5688C61.2342 71.458 61.667 71.3214 62.1031 71.2366C62.2825 71.2022 62.4545 71.2308 62.6239 71.24C62.5425 71.3641 62.4285 71.5881 62.4058 71.6224C62.1517 72.0184 61.8959 72.4127 61.6385 72.8053C61.137 73.5688 60.6329 74.3313 60.1105 75.0805C58.0726 78.0016 55.8746 80.7903 53.6958 83.6049C53.1473 84.3129 52.5913 85.0135 52.0261 85.7073C52.0286 85.703 52.0303 85.6988 52.0328 85.6947C52.5418 84.703 53.0509 83.7123 53.5599 82.7206C54.5277 80.8365 55.4863 78.9472 56.4641 77.068C56.5144 76.9698 56.5656 76.8725 56.6167 76.7744C56.8197 76.385 56.4868 75.9808 56.07 76.0629C54.0366 76.4636 52.023 76.9561 50.0343 77.5392C49.9448 77.6346 49.8133 77.6625 49.6958 77.6395C49.6159 77.6634 49.5356 77.6864 49.4557 77.7106C49.4799 77.6604 49.505 77.6106 49.5294 77.5605C49.4481 77.4899 49.4077 77.3806 49.4605 77.2441C50.6049 74.2904 52.1738 71.439 54.0327 68.8276C53.9579 68.829 53.8832 68.8301 53.8082 68.8323C51.7678 68.8876 49.766 69.1804 47.7994 69.7365C47.7902 69.5545 47.9 69.2727 47.9596 69.1385C48.1977 68.6023 48.4711 68.0788 48.7269 67.5511C49.2502 66.4672 49.7735 65.3843 50.2968 64.3003C50.8084 63.2416 51.3158 62.1796 51.7971 61.1058C52.0496 60.5427 52.302 59.979 52.5536 59.4153C52.759 58.9563 52.9209 58.4941 53.0911 58.0244C53.591 58.1712 60.009 58.203 61.5689 58.3113C61.9513 58.3381 62.3345 58.3625 62.7178 58.3834C63.023 58.4011 63.4533 58.4682 63.6638 58.1922L63.7434 58.2592C63.0507 59.0881 62.3865 59.9396 61.7206 60.7902ZM36.6632 45.391C36.6951 45.3767 36.7261 45.3625 36.7571 45.3482C36.7731 45.3709 36.7923 45.3918 36.8125 45.4128C36.8628 45.464 36.9123 45.5193 36.9643 45.5697C36.8636 45.5109 36.763 45.4513 36.6632 45.391ZM81.5165 92.5378C81.4587 91.3155 81.3941 90.0931 81.3253 88.8708C81.1895 86.4816 81.0494 84.0923 80.8624 81.7064C80.4825 76.8717 80.1286 72.0386 79.5592 67.2214C79.3202 65.2021 78.9864 63.198 78.6518 61.1929C78.6945 61.1543 78.7381 61.1157 78.7809 61.0781C78.7348 61.6266 79.4795 61.974 79.8485 61.427C79.8762 61.386 79.903 61.3448 79.9298 61.3021C80.2494 60.7853 80.9857 58.25 80.9345 58.0352C80.8423 57.6485 80.5857 57.3046 80.3852 56.964C80.2099 56.6661 80.033 56.3683 79.8535 56.073C79.4954 55.4815 79.1264 54.896 78.7398 54.323C77.9389 53.1368 77.0634 51.9975 76.0319 51.0017C74.9643 49.9698 73.7391 49.1216 72.4736 48.3524C71.8656 47.9832 71.2383 47.6485 70.5992 47.3364C69.9686 47.0293 69.2784 46.6896 68.5991 46.5151C68.5605 46.505 68.5211 46.5588 68.5563 46.5873C68.7366 46.7299 68.9253 46.8641 69.1174 46.9933C68.5974 46.813 68.0615 46.6829 67.5215 46.6367C66.4757 46.2693 65.4173 45.9329 64.3766 45.5495C63.3535 45.1719 62.3454 44.7475 61.6653 43.8532C61.0841 43.0889 60.7168 42.1536 60.4342 41.2425C60.1239 40.2383 60.0006 39.1946 59.7138 38.1887C59.6912 38.1073 59.5578 38.0981 59.5402 38.1887C59.3356 39.2441 59.3448 40.4304 59.4614 41.4958C59.5838 42.6132 59.8983 43.7098 60.5826 44.6183C61.3776 45.6745 62.4561 46.2626 63.6696 46.7315C64.6483 47.1108 65.6396 47.4966 66.6417 47.8355C66.5109 47.9212 66.3784 48.0067 66.2417 48.0881C65.6983 48.4111 65.133 48.698 64.5552 48.9556C63.5002 49.4261 62.389 49.7786 61.2711 50.0646C59.1905 50.5948 57.057 50.8641 54.9118 50.8994C50.6197 50.9707 46.2798 50.0714 42.3541 48.3348C41.2488 47.8457 40.1695 47.3079 39.1011 46.7433C38.7673 46.5671 38.4319 46.3892 38.0981 46.2063C38.1258 46.2047 38.1543 46.2022 38.182 46.1996C38.9275 46.1292 39.6638 45.9858 40.385 45.7828C41.8619 45.3658 43.2775 44.7157 44.6679 44.0755C45.847 43.5327 47.0614 42.9144 47.7818 41.7836C48.1667 41.1787 48.3437 40.469 48.4871 39.7744C48.6472 39.0009 48.8359 38.224 48.9525 37.443C48.9936 37.1695 48.9324 36.7995 48.6388 36.6704C48.5214 36.6191 48.425 36.5771 48.2933 36.5771C48.0023 36.5771 47.7038 36.7886 47.6342 37.0789C47.4622 37.8029 47.3583 38.547 47.2232 39.2785C47.1067 39.911 47.0002 40.5714 46.6588 41.1275C46.0626 42.1016 44.8935 42.5998 43.9056 43.0739C42.6535 43.6745 41.4006 44.26 40.0999 44.7475C39.5271 44.9622 38.9443 45.1569 38.353 45.3162C38.3765 45.1712 38.3564 45.0184 38.2709 44.9035C38.1283 44.7139 37.9664 44.5881 37.7828 44.443C37.5832 44.2852 37.3148 44.2031 37.0792 44.2727C37.0792 44.2735 37.0783 44.2727 37.0783 44.2727C36.9827 44.2517 36.8771 44.26 36.768 44.3095C36.4309 44.464 36.0946 44.6199 35.7583 44.7786C30.9203 47.0554 26.2197 49.7298 22.6597 53.8028C22.1465 54.3901 21.666 55.0076 21.2156 55.6443C20.7779 56.2626 20.2361 56.9338 20.1153 57.7005C20.1053 57.7643 20.1984 57.7937 20.2143 57.7282C20.2428 57.6099 20.2814 57.4941 20.3292 57.3817C20.2294 57.7308 20.2353 58.1016 20.3762 58.4664C20.543 58.8959 20.8491 59.1804 21.2357 59.2936C20.8475 60.9959 20.5866 62.7207 20.377 64.4647C20.0759 66.9773 19.8621 69.4959 19.7011 72.0209C19.379 77.0605 19.2356 82.125 19.3396 87.1737C19.369 88.6006 19.4176 90.0277 19.4914 91.4539C19.5283 92.167 19.5686 92.8792 19.6147 93.5922C19.66 94.2937 19.6231 95.0663 20.2344 95.4363C20.242 95.464 20.2504 95.4907 20.2579 95.5184C20.4063 96.036 21.068 95.87 21.1301 95.4001C21.1309 95.3952 21.1318 95.3892 21.1326 95.3843C21.6324 95.0026 21.5569 94.3667 21.52 93.7567C21.4806 93.0982 21.4387 92.4405 21.4035 91.7828C21.3364 90.5209 21.2794 89.2593 21.2282 87.9966C21.1284 85.5 21.0722 83 21.0538 80.5016C21.0169 75.5042 21.3054 70.5142 21.6475 65.5311C21.7909 63.4463 21.9586 61.3708 22.0098 59.2869C22.2773 59.1476 22.3595 58.7517 22.2253 58.4849C25.3937 60.6476 28.3339 63.2332 30.6947 66.2383C31.0888 66.7399 31.4654 67.2567 31.826 67.7828C31.9434 67.9538 32.0549 68.1318 32.1673 68.3095C32.0583 68.8053 31.9736 69.3095 31.8629 69.7852C31.6348 70.7677 31.5383 71.7869 31.4075 72.7853C31.1417 74.813 30.9546 76.859 30.7961 78.8976C30.4842 82.9236 30.2527 86.9489 30.1797 90.9866C30.1395 93.2701 30.0858 95.5679 30.1865 97.8507C30.1118 98.2969 30.5135 98.7333 30.9337 98.7895C31.3018 98.8389 31.6457 98.6477 31.8067 98.3397C32.9539 98.4823 34.1314 98.5479 35.2711 98.5562C36.8066 98.5671 38.3421 98.5655 39.8777 98.5327C42.9496 98.4656 46.0206 98.3868 49.0917 98.2954C55.2338 98.1141 61.376 97.9321 67.5189 97.75C69.2222 97.6996 70.9255 97.6494 72.6287 97.599C73.3969 97.5764 74.3546 97.7978 74.9601 97.2048C75.0641 97.1023 75.1446 96.9823 75.2016 96.854C75.3828 96.8993 75.605 96.8548 75.7241 96.7147C75.9463 96.4521 76.1099 96.2089 76.1015 95.8448C76.0939 95.5042 76 95.1452 75.9514 94.8079C75.8591 94.1745 75.7702 93.5411 75.6855 92.9068C75.5186 91.6535 75.3627 90.3985 75.2192 89.1426C74.9257 86.5747 74.659 84.0008 74.4511 81.4245C74.0385 76.3298 73.9219 71.2081 73.9361 66.0974C73.9378 65.6402 73.9403 65.1829 73.9429 64.7256C73.9621 64.75 73.9831 64.7726 74.0058 64.792C74.0242 64.8079 74.0427 64.8238 74.0611 64.8407C74.2758 65.0294 74.633 65.1267 74.8905 64.948C75.2067 64.7433 75.4247 64.4362 75.6713 64.1586C75.9304 63.8675 76.1971 63.5839 76.4663 63.3021C76.9879 62.7568 77.5272 62.234 78.0773 61.7172C78.1218 61.6762 78.1662 61.6343 78.2106 61.5939C78.214 63.2206 78.2123 64.8465 78.2559 66.4724C78.3213 68.8876 78.4522 71.3004 78.5721 73.7123C78.8103 78.4882 79.0568 83.2625 79.2942 88.0377C79.3604 89.3709 79.4233 90.7047 79.4896 92.0377C79.5231 92.7047 79.5558 93.3716 79.5877 94.0386C79.6045 94.3993 79.6212 94.761 79.638 95.1217C79.6564 95.5093 79.6321 95.9236 79.763 96.292C80.0607 97.1342 81.3471 97.2533 81.5945 96.292C81.7497 95.6888 81.6306 94.9907 81.6029 94.3716C81.5744 93.761 81.5459 93.1493 81.5165 92.5378Z" fill="#0C0C0C"/>
<path fill-rule="evenodd" clip-rule="evenodd" d="M58.6721 42.7407C56.8107 42.7517 55.2287 42.2233 54.0216 41.3493C52.5153 40.8119 50.6983 39.9831 49.5946 39.1131C49.1642 39.223 48.6491 38.7655 48.3197 38.5241C46.2713 36.994 44.6635 34.7543 44.1871 32.5108C43.4516 33.4395 42.405 33.4781 41.4024 33.0165C39.3008 31.8243 39.3794 29.3138 40.136 27.4381C38.5453 23.8679 37.443 14.4429 39.871 10.6391C40.3677 10.07 41.0965 9.72954 41.6213 9.1459C42.0882 8.63617 42.5324 8.11478 43.0756 7.71142C44.7333 6.44934 47.5883 5.77736 49.3759 5.46134C56.8382 3.84741 62.5718 6.74825 69.3313 9.19515C68.9423 10.1683 68.4041 11.0558 67.7874 11.8833C69.4655 12.5099 68.6947 13.9187 67.3928 14.6329L66.6178 14.2561C67.826 18.5804 70.6065 29.3339 69.4068 32.7872C68.4501 38.1748 64.2514 42.7798 58.6721 42.7407Z" fill="white"/>
<path fill-rule="evenodd" clip-rule="evenodd" d="M59.7504 43.2046C57.3335 43.4528 54.4622 42.8812 52.8509 40.9172C52.8027 40.8584 52.7817 40.7918 52.7804 40.7276C52.779 40.6561 52.803 40.587 52.8444 40.5333C52.888 40.4769 52.95 40.4375 53.0211 40.4247C53.0809 40.414 53.1491 40.4209 53.2195 40.4604L53.3676 40.5429C54.468 41.1509 55.6108 41.6693 56.8579 41.8913C58.1419 42.1197 59.4493 42.0941 60.7219 41.804C63.04 41.2757 64.916 39.9279 66.2968 38.1508C67.8377 36.1676 68.763 33.6502 68.9989 31.1326C69.2847 28.0815 68.6217 25.049 67.9358 22.0948C67.215 18.9907 66.4272 15.9024 65.512 12.85C65.4844 12.7581 65.477 12.6721 65.485 12.5929C65.215 12.4871 64.9277 12.5165 64.6418 12.613C64.1194 12.7895 63.5989 13.1874 63.1649 13.5159C63.0077 13.6348 62.8614 13.7454 62.73 13.8354C62.1918 14.2038 61.6034 14.4689 60.9455 14.5106C60.2613 14.5538 59.5904 14.3411 58.969 14.0749C58.6533 13.9396 58.3427 13.7993 58.0333 13.6596C57.1523 13.2616 56.2817 12.8676 55.3303 12.6116C54.0556 12.2684 52.7394 12.0994 51.4192 12.1115C49.063 12.133 46.6996 12.7397 45.2555 14.7332C44.6706 15.5407 44.2892 16.4688 44.5866 17.4654C44.7484 18.0076 45.0538 18.4997 45.3871 18.9524L45.5014 19.1065C45.6842 19.355 45.843 19.6025 45.8909 19.866C45.931 20.0867 45.8997 20.3202 45.7422 20.5761C45.643 20.7372 45.5168 20.8817 45.3899 21.0257C45.2984 21.1296 45.2066 21.2332 45.1276 21.3449C44.9684 21.5699 44.8275 21.8123 44.717 22.0651C44.5005 22.56 44.4087 23.0924 44.3895 23.6292C44.3663 24.277 44.4573 24.9106 44.5476 25.5452C44.6116 25.9951 44.6755 26.4455 44.7013 26.9013C44.7058 26.9809 44.6815 27.0401 44.6475 27.084C44.6058 27.1377 44.545 27.1715 44.4758 27.1809C44.4548 27.1837 44.433 27.1842 44.4112 27.1822C44.4219 27.2261 44.4314 27.2701 44.4396 27.3143C44.3959 27.2581 44.3493 27.2035 44.3002 27.1507C44.2971 27.1492 44.294 27.1475 44.2909 27.1458C44.2402 27.118 44.1973 27.0756 44.1703 27.021C44.1007 26.9563 44.0271 26.895 43.9498 26.8373C43.5478 26.5373 43.0783 26.3594 42.6074 26.3535C42.1534 26.3478 41.6983 26.5024 41.3483 26.829C40.6528 27.4781 40.4491 28.5377 40.4418 29.4475C40.4345 30.3762 40.6493 31.4908 41.4588 32.0674C41.7835 32.2987 42.18 32.4377 42.5795 32.4417C42.9107 32.445 43.2276 32.3278 43.5396 32.2161C43.6358 32.1817 43.7316 32.1475 43.8271 32.1164C43.9356 32.081 44.0345 32.0833 44.1207 32.1091C44.2179 32.1382 44.3004 32.1983 44.362 32.2785C44.4234 32.3584 44.4636 32.4584 44.4761 32.5631C44.4881 32.6645 44.4742 32.7698 44.4313 32.8647C44.4205 32.8886 44.4092 32.9119 44.3974 32.9345L44.5754 33.2274C45.2571 34.3458 45.9507 35.4437 46.8603 36.405C47.3823 36.9568 47.9357 37.4775 48.5427 37.9333L48.6303 37.9983C48.6827 38.0368 48.7408 38.0842 48.8027 38.1349C48.9798 38.2798 49.192 38.4741 49.3901 38.4817C49.4489 38.484 49.5002 38.4767 49.5469 38.4705C49.6597 38.4557 49.7543 38.4514 49.8473 38.4893C49.9221 38.5199 49.9998 38.5769 50.0795 38.6946C50.1334 38.7743 50.1611 38.8742 50.1611 38.9756C50.1611 39.0775 50.1331 39.1794 50.0832 39.2599C49.9801 39.4266 49.8553 39.5299 49.72 39.5885C49.5691 39.6539 49.4023 39.6639 49.2289 39.6315C48.8019 39.5519 48.3291 39.198 48.0283 38.9671L47.9701 38.9225C47.3035 38.4138 46.6717 37.851 46.1163 37.2216C45.1705 36.1497 44.3211 34.8867 43.8847 33.5066C43.5772 33.7086 43.1973 33.8046 42.8 33.8197C42.2213 33.8417 41.6087 33.6927 41.1574 33.4786C40.1626 33.0067 39.5584 32.1142 39.2752 31.0878C38.9464 29.8958 39.0533 28.5254 39.4696 27.4547C39.4816 27.4235 39.4942 27.3925 39.5072 27.3611C38.2256 24.113 37.8315 20.5062 37.9413 17.0399C37.9926 15.4174 38.1031 13.7151 38.4857 12.1327C38.6572 11.4234 38.9552 10.748 39.431 10.1896C39.7023 9.87123 40.0351 9.62335 40.3695 9.37615C40.6591 9.16204 40.9498 8.94841 41.1944 8.68108L41.3101 8.55414C41.3352 8.52654 41.3602 8.49897 41.3851 8.47144C41.8076 8.00569 42.2188 7.55376 42.7314 7.17179C43.3259 6.72892 43.982 6.38228 44.6636 6.09439C46.1321 5.47442 47.7127 5.10268 49.2763 4.81508C52.659 4.19301 56.1314 4.16231 59.4727 5.03674C61.0261 5.44324 62.5337 5.99966 64.0388 6.55541C64.1785 6.60701 64.3182 6.6586 64.458 6.71007C65.6276 7.14087 66.7978 7.56984 67.9681 7.99881C68.5119 8.19817 69.0558 8.39753 69.5996 8.59708C69.7176 8.6404 69.8331 8.7337 69.8989 8.84961C69.9631 8.9627 69.9822 9.09459 69.9304 9.22593C69.5967 10.0717 69.1757 10.8651 68.6632 11.6061C68.8413 11.7273 68.9929 11.8884 69.1075 12.077C69.2525 12.3156 69.3384 12.598 69.3442 12.8976C69.3638 13.9011 68.4509 14.5813 67.6936 15.0733C67.623 15.1192 67.5531 15.1463 67.4856 15.1587C68.2194 17.9655 68.9219 20.7819 69.5188 23.6205L69.5598 23.8173C70.1747 26.7881 70.5714 29.8198 69.9899 32.8301C69.4892 35.4222 68.3259 37.924 66.5083 39.855C64.7269 41.7476 62.3366 42.939 59.7504 43.2046ZM43.8358 26.1148C43.5193 25.1101 43.3516 24.017 43.4727 22.9986C43.5489 22.3584 43.7413 21.7422 44.0545 21.1779C44.234 20.8548 44.4527 20.5556 44.6913 20.2738L44.7736 20.1792C44.8153 20.1308 44.8568 20.0864 44.8696 20.0307C44.8771 19.9984 44.8695 19.963 44.8498 19.9207C44.8063 19.827 44.7253 19.7368 44.6495 19.6487C44.6013 19.5927 44.5543 19.5377 44.5148 19.4842C43.8212 18.545 43.3039 17.4268 43.472 16.2358C43.6361 15.0737 44.3974 13.9905 45.2079 13.1742C46.9925 11.3767 49.7594 10.9636 52.1832 11.0628C53.5942 11.1205 55.0029 11.3692 56.3466 11.8038C57.0092 12.0181 57.657 12.2791 58.2866 12.5783L58.426 12.6452C58.5012 12.6817 58.5764 12.7185 58.6516 12.7554C59.1437 12.9968 59.6377 13.2406 60.1719 13.3719C61.2151 13.6281 61.9228 13.0884 62.6667 12.5441C62.9216 12.3575 63.1804 12.1684 63.4555 12.0024L63.5121 11.9689C64.0084 11.6811 64.602 11.4875 65.1723 11.4961C65.6676 11.5037 66.1455 11.6619 66.5345 12.0358C66.6144 12.1126 66.6604 12.1964 66.6819 12.2798C66.725 12.3402 66.7597 12.4122 66.7824 12.4972C66.9217 13.0203 67.0605 13.5439 67.1988 14.0675L67.3118 13.9946C67.6468 13.777 68.0109 13.5283 68.1754 13.1642C68.2387 13.0241 68.2297 12.7906 68.15 12.619C68.1221 12.559 68.0852 12.5057 68.0343 12.4724C67.9972 12.4482 67.9525 12.4368 67.9006 12.441C67.7744 12.4572 67.6585 12.4388 67.5602 12.3972C67.4468 12.3493 67.3565 12.2704 67.2978 12.1754C67.2378 12.0781 67.2104 11.9637 67.2251 11.8451C67.2377 11.7431 67.2816 11.6366 67.3684 11.5365C67.9398 10.8776 68.421 10.1508 68.7867 9.36196L66.3676 8.46661C65.505 8.14753 64.6423 7.82886 63.7792 7.51142L63.3067 7.33773C61.7372 6.76188 60.1587 6.19911 58.5266 5.82837C55.283 5.09163 51.9006 5.26479 48.6659 5.95828L48.4705 6.00052C47.1132 6.2966 45.7375 6.65483 44.4917 7.27751C43.8801 7.58314 43.2988 7.95478 42.7997 8.42432C42.5792 8.63167 42.3799 8.8587 42.1805 9.08542C41.9011 9.40315 41.6213 9.72002 41.2891 9.98767L40.9807 10.2347C40.522 10.6045 40.1082 10.9648 39.8493 11.5383C39.5787 12.1378 39.4495 12.8002 39.3441 13.4455C39.0782 15.0712 38.9733 16.723 38.9833 18.3697C39.0002 21.1346 39.4201 23.8433 39.9506 26.5423C40.3763 25.933 40.9742 25.4606 41.7415 25.3599C42.2418 25.2942 42.7378 25.3875 43.1679 25.6088C43.4165 25.7367 43.6431 25.9074 43.8358 26.1148ZM43.0318 29.3979C42.4714 29.1808 41.883 29.1097 41.2901 29.2135C41.228 29.2243 41.1688 29.2114 41.119 29.1825C41.0685 29.1531 41.0287 29.1067 41.0071 29.0555C40.9822 28.9962 40.9809 28.9321 41.0029 28.8752C41.0221 28.8258 41.0585 28.7778 41.1255 28.7458C41.7674 28.4393 42.481 28.3041 43.1892 28.4003L43.2592 28.4102C43.6213 28.464 44.1304 28.577 44.5122 28.7995C44.8122 28.9744 45.0318 29.2154 45.0864 29.5302C45.1149 29.6943 45.0742 29.8656 44.9796 29.9897C44.8882 30.1098 44.7485 30.1898 44.5677 30.1846C44.2487 30.1756 44.0598 30.0407 43.8325 29.866C43.805 29.8448 43.7767 29.8231 43.7473 29.8011C43.5277 29.6367 43.2878 29.4971 43.0318 29.3979Z" fill="#0C0C0C"/>
<path fill-rule="evenodd" clip-rule="evenodd" d="M56.3875 33.2778C56.9958 33.1604 57.7525 33.4162 58.3591 33.5283L58.4043 33.5365C59.1398 33.665 59.8738 33.8204 60.6175 33.8962C61.3275 33.9688 62.0526 33.9818 62.7627 33.9001C63.1036 33.8609 63.4417 33.7941 63.7729 33.7045C63.9147 33.6662 64.0552 33.6234 64.1941 33.5759L64.2098 33.5699C64.3118 33.5277 64.5877 33.369 64.5845 33.4574C64.6621 33.3679 64.7689 33.3044 64.8862 33.2735C65.0518 33.23 65.2643 33.2709 65.4028 33.388C65.583 33.2452 65.8534 33.3476 65.9743 33.5186C66.1815 33.8118 66.1141 34.1555 66.0873 34.4956L66.0851 34.5256C66.0623 34.8463 66.0275 35.1647 65.9845 35.483L65.9656 35.6194C65.8988 36.0901 65.8804 36.8664 65.3102 37.0207C64.8593 37.1428 64.4466 36.6786 64.1559 36.3103L63.9968 36.1063C63.8083 35.8671 63.6373 35.6209 63.4994 35.349C63.4366 35.2252 63.3759 35.0985 63.3233 34.97C63.3167 34.9538 63.3118 34.9393 63.3068 34.9247C62.4705 35.0373 61.6144 35.0212 60.7759 34.9106C60.2451 34.8406 59.7221 34.7394 59.207 34.6035L58.9746 35.0237C58.7027 35.5137 58.4269 36.0023 58.1369 36.4812L58.1144 36.5177C57.843 36.9496 57.3886 37.3822 56.8513 37.0587C56.3705 36.7691 56.3501 36.1104 56.2994 35.6189C56.2656 35.2905 56.2382 34.9599 56.225 34.6298L56.2202 34.4883C56.2116 34.1682 56.1595 33.7971 56.2826 33.4977C56.3004 33.4541 56.3631 33.4205 56.4008 33.4664C56.6578 33.779 56.7356 34.2635 56.8466 34.6471C56.9702 35.074 57.1493 35.5402 57.2135 35.9829L57.2315 35.9517C57.2947 35.8315 57.3593 35.7119 57.4242 35.5924L57.6187 35.2341C57.7933 34.9106 57.971 34.5892 58.1503 34.2684C57.9455 34.1915 57.7427 34.1088 57.5407 34.0248L57.0822 33.833C56.8203 33.7224 56.5532 33.5975 56.3563 33.3961C56.3215 33.3605 56.3336 33.2881 56.3875 33.2778ZM65.0857 34.4597C64.6339 34.6434 64.1666 34.776 63.6908 34.8639C63.7215 34.8954 63.7522 34.9268 63.7807 34.9599C63.8926 35.0895 64.0114 35.214 64.1309 35.3371L64.2026 35.4108C64.3856 35.5986 64.6605 35.9079 64.941 36.0877L64.9562 36.0066C64.9586 35.9926 64.9606 35.9804 64.9616 35.971L64.9915 35.7042C64.9963 35.6597 65.001 35.6152 65.0055 35.5706C65.0296 35.3299 65.0488 35.0887 65.069 34.8477C65.0795 34.7207 65.0821 34.5902 65.0857 34.4597ZM59.7394 18.9507C60.8153 18.491 62.0923 18.708 63.0191 19.4024C63.9674 20.1131 64.3821 21.2685 64.437 22.4212C65.1869 21.7806 66.267 22.2655 66.8987 22.8657C67.6276 23.5584 67.9963 24.6038 67.8264 25.5959C67.657 26.5847 66.9418 27.457 65.9741 27.751C65.5111 27.8917 64.9951 27.8949 64.5293 27.764C64.3711 27.7195 64.1773 27.6505 63.9983 27.5545C64.0085 27.5956 64.0189 27.6368 64.0286 27.6778C64.261 28.6618 64.3928 29.7678 64.0441 30.7409C63.4836 32.3045 61.4929 33.1799 60.2501 31.792C59.7621 31.2471 59.3828 30.3937 59.4123 29.6509C59.4278 29.2605 59.6489 28.8089 60.1053 28.8353C60.4591 28.8557 60.627 29.152 60.5364 29.4656L60.5309 29.4837C60.339 30.0831 60.6666 30.9492 61.1411 31.358C61.8689 31.9849 62.8676 31.4394 63.2656 30.7042C63.7293 29.8474 63.6729 28.7489 63.5246 27.8168C63.379 26.9015 63.0544 26.0644 62.7098 25.2175C62.6732 25.2241 62.6362 25.2302 62.5983 25.2353C61.9129 25.3284 60.5185 25.3634 59.7613 24.8668C59.8427 25.6333 59.6831 26.4224 59.2478 27.0715C58.7627 27.7948 58.0319 28.1776 57.1814 28.2949C56.3553 28.409 55.3978 28.4321 54.5822 28.2363C52.8455 27.8193 52.2331 25.6744 52.7583 24.1261C53.0691 23.2103 53.936 22.3865 54.8997 22.1785C55.3962 21.8518 56.0628 21.7551 56.6358 21.7996C57.4915 21.8663 58.3343 22.2362 58.9074 22.8858C59.1264 23.1339 59.3065 23.4149 59.4453 23.7155C59.4919 23.6788 59.5462 23.6512 59.6076 23.6368C59.7035 23.6143 59.7873 23.6092 59.8811 23.6423C59.9278 23.6588 59.9951 23.7172 60.0356 23.7551L60.1282 23.8639C60.2416 23.9961 60.3495 24.1071 60.5515 24.1893C61.1145 24.4186 61.8782 24.4683 62.4764 24.4214C64.0027 24.3019 63.8105 22.2795 63.4345 21.2405C62.9892 20.0097 61.7128 19.244 60.4143 19.4626C59.8563 19.5565 59.3241 19.8535 58.9157 20.2417C58.4598 20.6751 58.2645 21.1986 57.9911 21.7472C57.9749 21.7796 57.919 21.7726 57.9121 21.7368C57.6873 20.5801 58.753 19.3722 59.7394 18.9507ZM51.61 28.2764C51.5636 28.222 51.6245 28.1262 51.6909 28.1714C52.1774 28.502 52.7184 28.7406 53.3066 28.8051C53.5828 28.8353 53.8612 28.8374 54.1364 28.795C54.3708 28.7588 54.582 28.6873 54.816 28.7519C54.9406 28.7863 54.9632 28.9308 54.8871 29.0215C54.5337 29.4423 53.6634 29.3299 53.1889 29.2171C52.5753 29.0713 52.019 28.7571 51.61 28.2764ZM67.981 27.5079C68.2199 27.3599 68.5042 27.6531 68.363 27.8899C68.0003 28.4975 66.9493 28.547 66.3395 28.4016C66.2918 28.3903 66.3027 28.3154 66.351 28.3167C66.7015 28.3254 67.0182 28.258 67.3201 28.0751C67.5781 27.9188 67.732 27.6623 67.981 27.5079ZM56.3272 22.6506L56.2793 22.651C55.7218 22.66 55.2113 22.8727 54.674 22.9851C54.6295 22.9945 54.5848 22.9897 54.5445 22.9749C53.8902 23.4116 53.4391 24.0982 53.3779 25.0016C53.3355 25.6274 53.4882 26.3092 53.8596 26.8227C54.2824 27.4071 54.9634 27.4973 55.6341 27.5148L55.7023 27.5163C56.9701 27.541 58.3649 27.4661 58.8169 26.0482C59.1513 24.9988 58.7941 23.7248 57.8625 23.0962C57.41 22.7909 56.8696 22.6501 56.3272 22.6506ZM66.5417 23.4032L66.5045 23.3598C66.0072 22.789 65.2188 22.2692 64.4414 22.5566L64.4437 22.6528C64.4439 22.6688 64.4441 22.6848 64.4441 22.7009C64.4417 23.803 64.0148 24.8316 62.9654 25.1551C63.2469 25.5568 63.4731 26.0026 63.6543 26.4653C63.7182 26.4235 63.7959 26.397 63.8861 26.3879C64.2556 26.3504 64.4672 26.6975 64.7876 26.8269C65.0875 26.9483 65.4276 26.9795 65.7442 26.9169C66.4368 26.7799 66.9227 26.1825 67.0929 25.5196C67.2854 24.7702 67.0311 23.9845 66.5417 23.4032ZM55.9994 24.3308C56.2304 23.9406 56.8001 23.997 57.0285 24.3411L57.0394 24.3582L57.0419 24.3551C57.4223 24.8482 57.2384 25.627 56.6861 25.9043C56.2431 26.1265 55.6796 26.0682 55.3851 25.6356C55.3191 25.5386 55.2767 25.4245 55.2612 25.309C55.2506 25.2304 55.2567 25.1519 55.2743 25.0738L55.2698 25.092C55.2786 25.0526 55.2924 24.9908 55.296 24.9761C55.3349 24.8171 55.4283 24.6464 55.5451 24.5312C55.6654 24.4126 55.8326 24.3405 55.9994 24.3308ZM65.4901 23.9254C65.6946 23.9254 65.8761 24.011 66.0239 24.1467C66.234 24.3397 66.2633 24.6176 66.2179 24.8812C66.204 24.9617 66.1849 25.0395 66.1648 25.1186L66.1476 25.1903C66.1446 25.2022 66.1413 25.214 66.1377 25.2256C66.1251 25.2747 66.105 25.3197 66.0812 25.3629C65.9938 25.6886 65.6396 25.8504 65.3274 25.7793C65.1804 25.7458 65.0339 25.6239 64.9591 25.496C64.9345 25.4539 64.9172 25.4119 64.905 25.3698L64.8442 25.2256C64.8328 25.191 64.8256 25.154 64.8165 25.1186C64.7961 25.0395 64.7765 24.9616 64.7623 24.8812C64.7141 24.6088 64.7525 24.3505 64.9564 24.1467C65.0932 24.0097 65.2966 23.9254 65.4901 23.9254ZM60.9847 21.0996C61.3397 21.052 61.7013 21.2174 61.8848 21.5311C62.0443 21.8038 62.0437 22.1706 61.8848 22.4433L61.8714 22.4663C61.5788 22.9685 60.8964 23.033 60.4859 22.6449L60.466 22.6262C60.202 22.3767 60.1426 21.9631 60.2793 21.6391C60.4042 21.3428 60.6662 21.1425 60.9847 21.0996Z" fill="#0C0C0C"/>
<path fill-rule="evenodd" clip-rule="evenodd" d="M69.7337 28.2264C68.7155 29.2788 67.0157 29.5808 65.6611 29.0164C62.1828 27.5626 63.8853 23.0282 66.5678 21.8105C66.903 21.7269 67.3505 21.5287 67.7587 21.4837C67.7956 21.4656 67.8759 21.518 67.9733 21.4685C70.9312 21.7988 71.6048 26.3921 69.7337 28.2264ZM58.5146 28.4957C57.3727 30.0109 55.2496 30.4784 53.515 29.774C50.0882 28.424 51.3036 24.4031 53.6481 22.8268C58.6008 20.9651 60.646 25.702 58.5146 28.4957ZM51.086 25.1385C51.0829 25.137 51.0797 25.1363 51.0764 25.1347C51.0945 25.1268 51.1126 25.1188 51.1307 25.1107C51.1248 25.126 51.1184 25.1412 51.1127 25.1566C51.1038 25.1504 51.096 25.1433 51.086 25.1385ZM72.0912 23.5007C71.8116 23.5013 71.4077 23.5472 71.1763 23.7413C70.6055 21.8157 68.4987 20.0336 66.6665 21.3331C65.2236 21.7972 64.1529 22.8267 63.5444 24.1953C62.4472 23.5425 60.722 23.8212 59.7706 24.6846C59.1475 22.6249 57.6139 21.9037 55.7887 21.7972C53.7964 21.4708 51.8107 23.4063 51.1911 24.959C50.676 24.9003 49.9062 24.7363 49.4215 25.0544C46.2761 24.2292 40.7768 23.7743 40.1373 24.2327C39.6816 24.4076 39.4315 25.4837 40.068 25.5417C40.6227 25.4629 40.0033 24.7533 40.5624 24.6759C43.5415 24.4911 46.4335 25.0913 49.381 25.3431C49.6442 25.6972 50.4945 25.8157 50.9481 25.6734C50.2337 28.3073 51.7759 30.0993 54.0867 30.636C57.6649 31.4582 60.778 28.2562 59.8424 24.9257C60.9263 24.3863 62.1731 24.4094 63.3539 24.6936C61.3807 31.9578 73.076 31.6319 71.2494 23.9902C72.465 24.5951 72.729 23.6227 72.0912 23.5007Z" fill="#0C0C0C"/>
</svg>
