<svg width="100" height="100" viewBox="0 0 100 100" fill="none" xmlns="http://www.w3.org/2000/svg">
<path fill-rule="evenodd" clip-rule="evenodd" d="M48.3158 35.2425C50.7588 35.3631 54.5627 36.4109 54.7529 37.0805C55.0498 38.1261 54.4117 42.0462 55.479 44.1577C55.934 45.0578 57.6617 44.9771 58.3311 45.2703C60.571 46.2511 67.2019 48.1112 68.5691 50.4535C69.1168 51.3918 72.4829 63.0353 74.2715 68.9754C74.4732 69.6451 74.7009 70.2645 74.9485 70.8381L75.0395 70.3924C75.7688 66.8022 76.1334 64.6287 76.1334 63.8721C76.1334 62.6898 75.1907 57.7016 76.1334 56.4331C77.0667 55.1772 79.3159 54.1504 80.3279 54.13L80.3581 54.1297C81.0226 54.1297 81.5991 53.9219 82.0877 53.5063L82.8041 53.1459C86.4485 51.3165 88.5778 50.3129 89.1918 50.1354C90.1717 49.852 91.8393 50.4557 91.0055 51.3621C90.4496 51.9664 89.0528 53.0353 86.815 54.5689L85.9712 55.2396L86.0731 55.2929C87.1636 55.8672 87.8048 56.3505 87.9967 56.743C88.1945 57.1476 88.0996 57.6261 87.712 58.1786L87.7708 58.2359C88.261 58.7172 88.5061 59.04 88.5061 59.2043V60.0073C88.9937 60.7217 89.1156 61.3175 88.8718 61.7947C88.628 62.2719 88.2414 62.6854 87.712 63.0353C87.3219 64.0618 86.8574 64.7924 86.3184 65.227C85.7794 65.6617 84.8479 66.0235 83.5238 66.3125L82.3256 69.1785L81.3548 73.2049L80.8656 77.6976L81.0076 77.8005C81.666 78.2802 82.0877 78.6358 82.0877 79.0033C82.0877 79.5757 79.4313 93.0387 75.2984 93.6413C74.4046 93.7716 69.7691 93.1324 68.247 91.8938L68.2695 92.0276C68.6276 94.1914 68.5519 95.3151 68.0422 95.3987C61.779 96.4259 43.9909 96.7433 14.678 96.3508C14.5036 80.7869 15.2922 70.4216 17.0438 65.2549C21.5236 52.0407 26.4627 47.5274 28.1907 47.1408C29.7043 46.8022 34.953 44.7124 36.4202 44.1577C37.3779 43.7956 37.5831 42.7101 38.6745 42.7101L38.7628 42.7106C39.8182 42.7212 40.7542 42.91 41.2801 42.367C42.6601 40.9419 42.2743 38.9693 42.8468 37.0805C43.1623 36.0398 45.3179 35.0945 48.3158 35.2425Z" fill="white"/>
<path fill-rule="evenodd" clip-rule="evenodd" d="M41.6043 38.9741C41.7477 38.6899 42.1283 38.7267 42.3795 38.8557C43.1328 39.4066 42.3446 40.4745 42.1362 41.1468C41.6001 42.4508 40.6691 43.7252 39.3839 44.3347C39.4904 45.631 39.6111 46.9245 39.6556 48.2248C41.2988 50.2638 44.0693 51.008 46.5287 51.5803C50.3913 52.649 54.7507 50.4595 56.0544 46.64C54.5707 45.7966 54.0905 43.5884 54.5332 42.0478C54.5717 41.9396 54.7394 41.8917 54.799 42.0126C55.2053 42.8485 55.1511 43.8684 55.613 44.6943C60.0465 45.1189 65.7683 46.7924 68.6728 50.3792C69.9599 52.1736 70.4698 54.5075 71.1038 56.5872C72.4564 60.8748 73.5342 65.2491 74.8608 69.5411L75.0172 68.729C75.4458 66.4919 75.8352 64.2245 75.5458 61.9495L75.5406 61.8407C75.446 60.0305 74.8797 56.6666 76.2831 55.4444C77.5524 54.474 79.3913 53.6943 80.9842 54.1416C83.8189 52.8797 86.2656 50.7547 89.2847 49.927C90.2138 49.7357 91.5506 49.9622 91.3309 51.2232C90.7223 53.4287 88.1734 54.2847 86.4309 55.4219C87.5479 55.7247 88.9095 57.0835 88.0368 58.2684C88.0293 58.2894 88.0226 58.3053 88.0159 58.3179C88.7236 58.6317 88.8227 59.4203 88.649 60.0964C88.6314 60.2751 88.5844 60.1216 88.6894 60.2835C89.4879 61.0369 89.1349 63.137 87.932 63.2079C88.0108 64.203 87.3718 65.1694 86.5626 65.7122C85.6904 66.2969 84.4292 66.3221 83.7071 67.1225C82.0117 70.1131 81.4268 73.6436 81.242 77.0683C82.3596 77.4867 83.3623 78.7381 82.347 79.7998C82.3269 79.8021 82.3069 79.8045 82.2866 79.8062C81.698 81.3776 81.4707 83.0527 81.1594 84.6938C80.6805 87.494 79.4324 90.0651 77.8386 92.3978C75.9956 95.4856 71.0395 94.9961 68.5428 93.0033C68.5528 93.5261 68.6389 94.0459 68.4715 94.5511C68.2245 95.0963 67.6221 94.8607 67.5625 94.3238C66.2426 95.0663 65.9317 92.6153 67.3989 93.0041C67.2861 91.2322 67.2207 89.4578 67.1676 87.6829C65.5065 88.2207 65.4349 85.4638 67.1339 86.0151L67.1319 85.2529C67.1194 79.4088 67.184 73.5447 67.9549 67.7466C68.0262 67.3129 68.147 66.8934 68.2174 66.4622C68.225 66.4177 68.2946 66.4303 68.2948 66.473C68.4142 74.5905 67.8838 82.7253 68.4371 90.8456C68.8978 90.986 69.0814 91.5148 69.4225 91.8229C70.1796 92.5222 71.2108 92.8627 72.2191 92.9813C75.0427 93.3774 76.2617 92.5147 77.5191 90.0595C76.952 90.4387 76.1857 89.7691 76.5314 89.1691L76.5422 89.151C76.9012 88.5152 77.915 88.8962 77.7866 89.6082C79.0508 87.583 79.7124 85.2994 80.2011 82.9823L80.2672 82.7055C80.5047 81.7219 80.813 80.5947 81.3834 79.7047C77.9047 78.8178 74.5019 76.1155 73.9575 72.408C73.0743 75.1839 71.8778 77.8974 70.7374 80.5973C70.3852 81.536 70.2384 82.5452 69.7336 83.4161C69.6162 83.6174 69.3185 83.5654 69.2521 83.3531C68.7981 81.3224 70.1739 79.3908 70.8882 77.5628C71.4715 76.5297 73.1459 71.8118 74.184 71.8004C73.0175 66.6856 71.4616 61.6091 69.9799 56.558C68.5471 49.7377 65.6274 48.4225 59.4421 46.2751C60.5577 51.9627 65.6514 57.4682 62.941 63.4337L62.875 63.5884C62.5978 64.2462 62.3675 64.9089 62.5611 65.6308C62.7489 66.3313 63.1766 66.9396 63.5188 67.5696C65.4315 71.1284 64.1149 75.2846 63.3753 78.9907C62.4411 83.337 61.5183 87.6872 60.5526 92.0268C60.3623 92.8925 60.2389 93.7844 59.9514 94.6233C59.8029 95.0562 59.0624 95.0151 59.1103 94.51C59.2016 93.5302 59.4767 92.5746 59.6781 91.6124C60.8805 85.3825 62.5075 79.2261 63.542 72.9689C64.2074 68.337 61.5877 67.6253 61.6855 64.6325C62.0416 63.1019 62.9841 61.736 62.93 60.1048C63.1395 55.1119 59.504 50.9927 59.0551 46.1366L58.2627 45.8538C57.8666 45.712 57.4709 45.569 57.0766 45.4226C59.1525 59.9465 58.5221 74.7877 57.4844 89.3834C57.2724 90.0568 57.4741 94.7615 56.5852 94.3439C56.5404 94.6068 56.4007 94.8653 56.0972 94.864C53.3407 94.8892 50.5834 94.9328 47.8269 94.9657C46.501 94.8435 44.6786 95.3499 43.5508 94.5846C42.2487 94.2129 42.099 90.6852 41.7509 89.4278L41.6152 88.5134C39.4026 73.5713 37.4227 58.321 39.0131 43.231C36.8003 43.3161 36.3436 45.7051 36.1795 47.4445C35.7692 51.2837 33.2896 54.5899 33.1707 58.4731C33.1607 59.4152 33.3384 60.3279 33.7149 61.1929C34.7137 63.3122 36.441 65.7623 35.15 68.1292C33.6231 69.9719 33.7553 70.4568 34.3156 72.7339C35.8919 80.2618 38.5097 87.4988 40.9999 94.7568C40.4588 97.5779 37.2044 87.1051 36.8982 86.3154C35.4576 87.0401 34.6706 84.6352 36.323 84.4639C35.2617 80.91 34.285 77.3296 33.4718 73.7097L33.4502 73.6077C33.091 71.9352 32.3845 69.9767 33.5776 68.4932C36.6541 65.3808 31.5451 61.9021 32.1896 58.1317C31.6331 58.5444 30.7907 58.1102 30.8034 57.4169C30.7781 56.6364 31.8262 56.2365 32.3305 56.8321C32.8491 53.7731 34.6531 51.1026 35.199 48.0526L35.2237 47.9094C35.4087 46.8314 35.4609 45.6972 35.9901 44.7147C35.2697 45.1829 34.5024 45.5612 33.7133 45.8951C35.1242 47.074 32.392 48.1501 32.6181 46.3288C24.8805 48.5683 23.1316 51.6912 20.2907 58.8632C20.8214 58.3475 21.7304 59.0149 21.4127 59.6727C21.1593 60.3657 20.0538 60.1631 20.0542 59.4245L19.9247 59.7333C18.202 63.8541 16.6341 68.0749 15.8461 72.4849C17.3918 72.2666 16.9983 74.7378 15.5978 74.0411C15.0358 77.9631 15.0269 81.9406 15.0956 85.8942C16.3994 85.2103 16.4386 87.5343 15.1082 86.8716C15.1568 90.1115 15.2281 93.3515 15.2818 96.5914C15.2927 97.281 14.2293 97.2777 14.2125 96.5914C14.0883 91.6131 13.862 86.6258 13.9696 81.646C13.8684 73.0029 16.3521 64.6724 20.0529 56.9299C23.3273 48.0151 27.8504 47.0012 36.1721 44.4093C36.9402 43.2686 38.5814 42.1897 39.9203 42.906C40.6695 41.6963 41.0499 40.2631 41.6043 38.9741ZM27.3467 70.0444C27.3777 69.9345 27.5345 69.9621 27.5395 70.0704C27.6092 71.4689 27.5471 72.8766 27.4515 74.281C27.3935 75.1384 27.3224 75.9949 27.262 76.8464C27.1018 79.0931 26.9727 81.3423 26.8745 83.5931C26.9089 83.5788 26.9441 83.5662 26.981 83.5562C27.1504 83.51 27.3199 83.51 27.4892 83.5562C27.6403 83.5984 27.7724 83.6722 27.8861 83.7787L27.9102 83.802C28.0033 83.8883 28.0695 83.9907 28.1081 84.109C28.1631 84.2143 28.1909 84.3268 28.1908 84.4471L28.1902 84.4773C28.1895 84.6501 28.1467 84.8103 28.0595 84.9597C27.9748 85.1032 27.8607 85.2173 27.7173 85.3027C27.5681 85.3892 27.4078 85.432 27.2351 85.4328C27.2167 85.4345 27.1982 85.4362 27.1798 85.437C27.0514 85.4421 26.9316 85.4152 26.8208 85.3573L26.8041 85.3523C26.7622 86.4941 26.7278 87.6367 26.7026 88.7793C26.68 89.7751 26.6498 90.7709 26.6297 91.7667L26.6203 92.2648L26.6021 93.3657C26.5961 93.8185 26.599 94.252 26.4452 94.6789L26.4267 94.7282C26.316 95.0133 26.2297 95.4102 25.9335 95.5688C25.6971 95.6954 25.3785 95.6485 25.2426 95.4017C25.1286 95.1954 25.2275 94.8984 25.3961 94.7591C25.3927 94.75 25.3877 94.7416 25.3835 94.7323C25.3575 94.6568 25.318 94.5855 25.2946 94.5092C25.2207 94.2676 25.241 94.01 25.2401 93.7591C25.2401 93.3162 25.2551 92.8733 25.2669 92.4311C25.2929 91.4898 25.3231 90.5495 25.3599 89.609C25.4846 86.4542 25.7193 83.2995 25.9881 80.1535L26.0793 79.0917C26.2009 77.6798 26.3267 76.2662 26.5047 74.8615C26.513 74.7944 26.5215 74.7273 26.5307 74.6601C26.4351 74.6124 26.3462 74.5461 26.2757 74.4723C25.9932 74.1755 25.8218 73.7318 25.6611 73.3496L25.6242 73.2626C25.4498 72.8548 25.2888 72.4421 25.2057 72.0042L25.1978 71.9639C25.1599 71.7774 25.0852 71.4469 25.2829 71.3565C25.386 71.3095 25.4514 71.3431 25.485 71.4463C25.4893 71.4597 25.4857 71.4748 25.4783 71.4865C25.5596 71.6115 25.6871 71.7282 25.7676 71.8439L26.0431 72.2381L26.1793 72.4361C26.3521 72.6904 26.5366 72.9337 26.7269 73.1736C26.877 72.1199 27.0607 71.0704 27.3467 70.0444ZM38.6459 93.5252C38.9906 93.2549 39.5516 93.4018 39.5516 93.9002C39.5516 94.4009 38.9898 94.5453 38.6459 94.2751L38.6288 94.2624L38.6124 94.2491C38.4252 94.1027 38.4189 93.7218 38.5982 93.5629L38.6124 93.5512C38.6232 93.5419 38.6342 93.5335 38.6459 93.5252ZM23.6314 92.5513L23.661 92.5519C23.817 92.5519 23.9621 92.5913 24.0971 92.6703C24.1558 92.7147 24.2136 92.76 24.2723 92.8054C24.3797 92.9127 24.4535 93.0403 24.4946 93.1871L24.5257 93.4168C24.5298 93.536 24.5055 93.6467 24.451 93.75C24.4157 93.8573 24.3562 93.9504 24.2723 94.0285C24.1935 94.1132 24.1013 94.1728 23.994 94.2071C23.8994 94.2571 23.7985 94.2825 23.6906 94.2825L23.661 94.2819C23.5043 94.2819 23.3591 94.2424 23.2241 94.1635C23.1654 94.1191 23.1075 94.0737 23.0488 94.0285C22.9423 93.9211 22.8677 93.7935 22.8267 93.6467C22.8165 93.5704 22.8066 93.4932 22.7956 93.4168C22.7915 93.2977 22.8165 93.1871 22.8702 93.0838C22.9054 92.9764 22.965 92.8834 23.0488 92.8054C23.1277 92.7206 23.2199 92.661 23.3272 92.6266C23.4218 92.5767 23.5234 92.5514 23.6314 92.5513ZM62.8873 90.9563L63.1071 90.9857C63.3175 91.0335 63.4869 91.1887 63.6001 91.3657C63.6605 91.4605 63.6931 91.5629 63.6982 91.6728C63.7226 91.7818 63.7175 91.8917 63.6831 92.0016C63.6579 92.1089 63.6085 92.2029 63.5355 92.2827C63.5104 92.3221 63.481 92.3582 63.4475 92.3901C63.3787 92.505 63.2748 92.5804 63.1673 92.6577C63.0769 92.7156 62.9787 92.7466 62.873 92.7516C62.8034 92.7701 62.733 92.7701 62.6625 92.7516C62.5577 92.7466 62.4596 92.7156 62.369 92.6577C62.3154 92.6166 62.2617 92.5746 62.2088 92.5335C62.1619 92.479 62.1183 92.4228 62.0772 92.3641C62.0496 92.2995 62.0227 92.2356 61.9959 92.1719C61.9463 92.0183 61.9707 91.8825 61.9976 91.729C62.0017 91.703 62.0085 91.6795 62.0177 91.6542L62.0358 91.6055C62.0841 91.4781 62.1099 91.4348 62.1954 91.3238L62.228 91.2802C62.2443 91.2584 62.2611 91.2372 62.2802 91.2181C62.3338 91.1627 62.4102 91.1165 62.4705 91.0688C62.5996 90.9941 62.7388 90.9572 62.8873 90.9563ZM34.4157 90.4191L34.4437 90.4194C34.5653 90.4203 34.6794 90.4505 34.785 90.5117L34.9225 90.6182C35.0064 90.703 35.0643 90.8019 35.097 90.917C35.1045 90.9772 35.113 91.0377 35.1213 91.0973C35.1246 91.1904 35.1054 91.2776 35.0626 91.359C35.0358 91.4429 34.9888 91.515 34.9225 91.5771C34.8614 91.6426 34.7884 91.6896 34.7045 91.7172C34.6313 91.7554 34.5526 91.7755 34.4689 91.7757L34.4437 91.7751C34.3213 91.7751 34.2072 91.7441 34.1016 91.6828L33.964 91.5771C33.8802 91.4924 33.8223 91.3926 33.7896 91.2776C33.782 91.2172 33.7737 91.1577 33.7653 91.0973C33.7619 91.0042 33.7812 90.917 33.824 90.8364C33.8517 90.7525 33.8978 90.6795 33.964 90.6182C34.0252 90.552 34.0982 90.505 34.1821 90.4781C34.2553 90.4396 34.3326 90.4202 34.4157 90.4191ZM28.8813 90.1417C29.0565 90.14 29.2344 90.1895 29.3778 90.2911C29.517 90.39 29.6226 90.4966 29.6906 90.6568C29.709 90.7005 29.7274 90.7432 29.7434 90.7869C29.8155 90.979 29.8289 91.1719 29.7291 91.3598C29.6327 91.5419 29.4247 91.6216 29.2385 91.676C29.0809 91.7231 28.9023 91.7307 28.7455 91.6744C28.6675 91.6468 28.5912 91.6174 28.5207 91.5746C28.3891 91.4932 28.3178 91.3967 28.2297 91.2775C28.161 91.1602 28.1266 91.0326 28.1266 90.8968C28.1266 90.7599 28.161 90.6333 28.2297 90.515C28.3647 90.2843 28.6146 90.1434 28.8813 90.1417ZM19.9921 90.3036C20.2136 90.3036 20.4081 90.406 20.5415 90.5787C20.6764 90.7542 20.7259 90.9723 20.6664 91.1896C20.6035 91.4194 20.4132 91.6208 20.1775 91.6786C20.0031 91.7214 19.8605 91.7198 19.6869 91.6903C19.5401 91.6652 19.4278 91.5779 19.3154 91.4873C19.1871 91.3824 19.1477 91.1912 19.1686 91.0369C19.1888 90.8825 19.2601 90.7818 19.3683 90.6903L19.3691 90.6879L19.3288 90.7189C19.344 90.7055 19.359 90.6912 19.3742 90.677C19.3791 90.6686 19.3833 90.6594 19.3875 90.6501C19.4496 90.5444 19.5334 90.4614 19.6383 90.3993C19.7481 90.3355 19.8655 90.3036 19.9921 90.3036ZM71.6154 87.7626C71.737 87.7299 71.8594 87.7299 71.981 87.7626C72.0708 87.7835 72.1487 87.8246 72.2151 87.8858C72.2822 87.9296 72.3371 87.9856 72.3786 88.0552L72.3919 88.0788C72.4876 88.2416 72.5026 88.4278 72.4615 88.609C72.4104 88.833 72.2042 89.0369 71.981 89.0897L71.9735 89.0911L71.966 89.0931C71.8754 89.1216 71.7839 89.1258 71.6935 89.1049C71.602 89.1007 71.5173 89.0738 71.4394 89.0235C71.3404 88.9597 71.2574 88.8775 71.1936 88.7785C71.1432 88.6996 71.1165 88.6149 71.1122 88.5234C71.0964 88.4631 71.0964 88.4027 71.1122 88.3423C71.1165 88.2507 71.1432 88.166 71.1936 88.0872L71.3009 87.9487L71.3119 87.9396C71.3974 87.8539 71.4988 87.7952 71.6154 87.7626ZM63.1724 83.3229C64.2718 83.3229 64.2701 85.0293 63.1724 85.0293C62.0731 85.0293 62.0747 83.3229 63.1724 83.3229ZM22.9213 83.1073C23.0371 83.0813 23.1529 83.0864 23.2677 83.1224C23.3373 83.1518 23.4061 83.1812 23.4749 83.2096L23.651 83.3457C23.6837 83.3733 23.6996 83.4035 23.7298 83.4429L23.7675 83.4923C23.8221 83.5653 23.8234 83.5808 23.8833 83.7365C23.9235 83.8859 23.9235 84.0351 23.8833 84.1846C23.8639 84.2567 23.8346 84.3246 23.7969 84.3875C23.7624 84.4479 23.7211 84.501 23.6746 84.5497L23.651 84.5738C23.5721 84.6585 23.4791 84.7181 23.3717 84.7533C23.3038 84.7928 23.2308 84.812 23.1529 84.812C23.0371 84.838 22.9213 84.833 22.8065 84.7969C22.7369 84.7676 22.6681 84.7382 22.5993 84.7097L22.4233 84.5738L22.2874 84.3976L22.2441 84.2943L22.2002 84.1904L22.1692 83.9597C22.165 83.8397 22.1893 83.729 22.2437 83.625C22.2647 83.5519 22.3017 83.4874 22.3553 83.4336C22.3939 83.3682 22.4458 83.3162 22.5113 83.2776C22.5649 83.2239 22.6296 83.187 22.7025 83.1661C22.7704 83.1266 22.8434 83.1073 22.9213 83.1073ZM77.2977 81.8883C77.3892 81.8851 77.4747 81.9043 77.5535 81.9462C77.5812 81.9555 77.6081 81.9672 77.634 81.9807C77.7355 82.0402 77.816 82.1207 77.8756 82.2215C77.9242 82.2987 77.951 82.3817 77.9552 82.4714C77.9734 82.5523 77.9718 82.6338 77.9498 82.7148L77.9426 82.7391C77.9242 82.8054 77.8965 82.8665 77.8597 82.9227C77.8562 82.9294 77.8521 82.9362 77.847 82.942C77.7909 83.031 77.7162 83.1039 77.624 83.1586C77.5217 83.2172 77.4118 83.2474 77.2927 83.2483C77.0554 83.2483 76.8508 83.12 76.7258 82.9227C76.7082 82.8951 76.6982 82.8598 76.6857 82.8313C76.6747 82.8044 76.6571 82.7701 76.6478 82.7391C76.616 82.62 76.616 82.5008 76.6478 82.3817C76.6687 82.2944 76.7082 82.2181 76.7678 82.1534C76.8155 82.0805 76.8784 82.0227 76.9565 81.9807C77.0532 81.9242 77.1572 81.8941 77.2675 81.8891L77.2977 81.8883ZM30.8796 81.0537C30.9957 81.0219 31.1112 81.0195 31.2266 81.0463L31.2554 81.0537C31.3476 81.0755 31.4273 81.1174 31.496 81.1795C31.5723 81.2298 31.6336 81.2961 31.678 81.3782C31.7418 81.4882 31.7737 81.6074 31.7744 81.7348C31.7737 81.8624 31.7418 81.9815 31.678 82.0913C31.6151 82.198 31.5304 82.2819 31.424 82.3448L31.3317 82.3892C31.2546 82.4379 31.1724 82.4639 31.0834 82.468C31.024 82.484 30.9643 82.484 30.9057 82.468C30.8453 82.468 30.7891 82.453 30.7372 82.4228C30.6801 82.4069 30.6314 82.3782 30.5895 82.3363C30.5165 82.2893 30.4596 82.2273 30.4177 82.1493L30.3496 81.989L30.3262 81.8111L30.3496 81.6342L30.3866 81.547C30.4201 81.4269 30.4805 81.323 30.5685 81.2349C30.6566 81.1475 30.7606 81.0871 30.8796 81.0537ZM72.4675 79.6384C72.5898 79.5998 72.7115 79.5947 72.8331 79.6216C72.9152 79.6216 72.9923 79.6426 73.0637 79.6846C73.1417 79.7063 73.2087 79.7449 73.2658 79.802C73.3655 79.8665 73.4436 79.9521 73.5014 80.0586L73.5936 80.2777C73.649 80.4194 73.6288 80.6283 73.5954 80.771C73.5677 80.8883 73.514 80.9908 73.4344 81.0779C73.3941 81.1459 73.3404 81.1997 73.2724 81.2399C73.1948 81.3106 73.1052 81.3609 73.0037 81.3908L72.9756 81.3984L72.9656 81.4009C72.9638 81.4018 72.9622 81.4018 72.9605 81.4018C72.9597 81.4027 72.958 81.4027 72.9571 81.4027C72.9169 81.4127 72.8759 81.4185 72.8331 81.4202C72.7115 81.4471 72.5898 81.4421 72.4675 81.4035C72.3953 81.3732 72.3224 81.3422 72.2494 81.3112C72.1874 81.2643 72.1261 81.2164 72.0641 81.1685C72.0163 81.1065 71.9685 81.0444 71.9207 80.9832C71.8535 80.8783 71.8175 80.7643 71.8125 80.6425C71.7906 80.5612 71.7906 80.4807 71.8125 80.3992C71.8125 80.3163 71.8335 80.2399 71.8745 80.1685C71.9115 80.0545 71.9744 79.9564 72.0641 79.8733C72.1261 79.8254 72.1874 79.7776 72.2494 79.7306C72.3224 79.6996 72.3953 79.6686 72.4675 79.6384ZM18.9817 76.635C19.1082 76.6006 19.2349 76.6006 19.3616 76.635L19.5317 76.7063C19.6156 76.7516 19.6819 76.8128 19.7322 76.8909C19.796 76.9596 19.8386 77.0411 19.8604 77.1342C19.91 77.2617 19.9041 77.4639 19.8647 77.5939C19.8203 77.7416 19.7515 77.859 19.645 77.9698C19.4681 78.1526 19.1963 78.2055 18.9557 78.1501C18.8893 78.135 18.8264 78.1057 18.7694 78.0696C18.5875 77.9572 18.4651 77.7609 18.4659 77.5436C18.4659 77.5201 18.4676 77.4966 18.471 77.4732C18.4592 77.4253 18.4549 77.3758 18.4567 77.3237L18.4819 77.1342L18.4835 77.1292C18.5171 77.0091 18.5775 76.9052 18.6654 76.8171C18.7468 76.7365 18.8417 76.6782 18.9501 76.6433L18.9775 76.635H18.9817ZM82.2614 57.797C82.0323 55.9181 81.171 53.8966 78.5439 55L78.3488 55.0731C77.6987 55.3193 76.9412 55.6427 76.5456 56.2114C76.2731 56.6032 76.3652 57.3624 76.3276 57.8196C76.1563 59.3062 76.2482 60.7907 76.4266 62.2709C76.657 65.7407 75.9277 69.3356 74.4759 72.4891C75.9289 74.841 77.8735 77.0347 80.5263 78.015C80.6385 75.3409 81.1618 72.7159 81.7188 70.1065L81.7408 69.9927C81.9635 68.8161 82.075 67.6085 82.8475 66.6299C84.4189 64.9233 86.5801 65.8892 87.6142 63.1476C87.397 63.0377 87.5169 62.6619 87.7786 62.7341C88.6856 62.8951 88.8329 61.2131 88.2122 60.8079C87.5654 60.4133 88.2166 59.6855 87.9412 59.1601C87.7878 58.9337 87.4565 58.9261 87.3063 58.6652C86.9083 57.7047 88.9002 57.0891 86.5578 56.0063C86.0784 55.8358 85.5425 55.9416 85.059 55.9396C84.3477 56.0061 83.7824 56.5074 83.1319 56.6652C83.8402 58.4998 82.053 60.2665 80.44 58.8011C79.5622 59.6311 78.5806 61.523 80.7143 60.641C81.7586 59.9438 82.6577 59.0425 83.8699 58.6131L83.8956 58.6051C84.3456 58.4576 86.3148 57.5005 86.2172 58.3289C85.4795 59.0411 84.263 59.0327 83.4087 59.6108C82.2243 60.1587 81.467 61.4864 80.0492 61.468C79.7223 63.4535 81.9745 62.2454 82.8132 61.6979L83.0458 61.5717C84.2287 60.9324 85.4295 60.3401 86.8091 60.3322C87.1899 60.3297 87.1882 60.9169 86.8091 60.9219C85.0112 60.9332 83.5478 62.0574 82.0417 62.8933C81.8934 64.0523 83.59 63.5449 84.2338 63.374C84.9088 63.2791 85.9928 62.5487 86.5836 62.9345C86.8147 63.5284 85.7979 63.4842 85.4439 63.6644C87.06 64.4409 85.6441 64.9299 85.2108 63.7365L85.0838 63.7798C84.0016 64.1436 81.3775 64.8925 81.6896 63.0587C81.2935 63.234 80.8106 63.3389 80.3729 63.2416C79.2815 64.8565 77.5404 64.2316 80.071 63.1308C79.5008 62.8655 79.3103 61.841 79.8581 61.4597C77.8662 61.3381 79.345 59.2474 80.1694 58.5506C80.0916 58.4719 80.0162 58.3917 79.946 58.3104C79.4706 58.5369 78.9708 58.6745 78.4365 58.7231C77.925 58.7692 77.8111 57.8985 78.3158 57.8272C78.8567 57.7508 79.3549 57.6065 79.8312 57.3346C80.553 57.0228 80.7994 58.3627 81.5219 58.4102C81.9159 58.4882 82.1825 58.1426 82.2614 57.797ZM65.4912 75.0863C65.6656 75.0863 65.8207 75.1594 65.9473 75.2751C66.0739 75.3909 66.1284 75.5646 66.136 75.7306C66.1393 75.8196 66.1209 75.9026 66.0806 75.9798C66.0546 76.0595 66.0102 76.1283 65.9473 76.1871C65.8299 76.3036 65.6563 76.3759 65.4912 76.3759C65.3168 76.3759 65.1616 76.3028 65.0349 76.1871C64.9084 76.0704 64.8538 75.8976 64.8462 75.7306C64.8429 75.6426 64.8614 75.5595 64.9016 75.4823C64.925 75.4106 64.9633 75.347 65.0166 75.2928L65.0349 75.2751C65.1524 75.1577 65.3259 75.0863 65.4912 75.0863ZM70.7765 71.1077L70.8045 71.1081C70.9521 71.109 71.0888 71.1459 71.2162 71.2197C71.2716 71.2625 71.3269 71.3044 71.3815 71.3473C71.4829 71.4496 71.5525 71.5695 71.5912 71.708C71.6306 71.8523 71.6306 71.9975 71.5912 72.1417C71.5777 72.2248 71.5467 72.3054 71.4981 72.375C71.4259 72.4949 71.3304 72.5914 71.2095 72.6627C71.0846 72.7357 70.9495 72.7717 70.8045 72.7726C70.6595 72.7717 70.5244 72.7357 70.3994 72.6627C70.2787 72.5914 70.1831 72.4949 70.1118 72.375C70.0623 72.3054 70.0313 72.2248 70.0179 72.1417C69.9784 71.9975 69.9784 71.8523 70.0179 71.708C70.0537 71.5794 70.1163 71.4668 70.2063 71.3695L70.2275 71.3473C70.3013 71.2676 70.3885 71.2114 70.49 71.1786C70.5792 71.1318 70.6747 71.1081 70.7765 71.1077ZM30.4402 71.1526C30.5023 71.1358 30.5635 71.1358 30.6256 71.1526C30.7178 71.1568 30.8041 71.1845 30.8839 71.2349C30.9308 71.2717 30.9778 71.3079 31.0248 71.3439L31.0657 71.3931C31.1532 71.4997 31.1554 71.5179 31.2226 71.6803C31.2504 71.771 31.2545 71.8616 31.2344 71.9522C31.2344 72.0134 31.2185 72.0704 31.1882 72.1233C31.1715 72.1812 31.143 72.2315 31.1002 72.2735C31.07 72.3246 31.0298 72.3657 30.9786 72.396C30.9132 72.4555 30.8361 72.4966 30.7472 72.5176L30.5668 72.5418C30.5434 72.5386 30.5191 72.5352 30.4956 72.5327C30.4673 72.5318 30.4398 72.5286 30.4129 72.5234L30.3857 72.5175L30.3609 72.5109C30.328 72.5013 30.2961 72.4885 30.265 72.4723C30.2063 72.4555 30.1551 72.4262 30.1115 72.3825C30.0361 72.3339 29.9757 72.2683 29.9321 72.1871L29.9203 72.1602C29.9044 72.1316 29.891 72.1023 29.8808 72.0704C29.8524 72.0201 29.8382 71.9664 29.8373 71.9085C29.8206 71.8315 29.8218 71.7552 29.8417 71.6789L29.8491 71.6534L29.9136 71.4999C29.9472 71.448 29.9824 71.395 30.0276 71.3522C30.0548 71.3281 30.1214 71.2761 30.1589 71.2501L30.1819 71.2349C30.2616 71.1845 30.348 71.1568 30.4402 71.1526ZM20.3301 69.953C20.4509 69.4773 21.0748 69.3271 21.4144 69.6669C21.754 70.0067 21.604 70.6308 21.1285 70.7516L21.074 70.7651C20.6144 70.8817 20.2001 70.4664 20.3167 70.0067L20.3301 69.953ZM77.889 66.0729C77.8856 66.0259 77.946 66.0092 77.9762 66.0369C78.3804 66.3993 78.6378 66.8339 79.1284 67.1149C79.6216 67.3968 80.1297 67.3741 80.6437 67.5561C80.8182 67.6182 80.819 67.8515 80.6437 67.9127C79.671 68.2525 77.9628 67.1006 77.889 66.0729ZM32.1812 65.9991C32.2894 65.9656 32.3984 65.9605 32.5066 65.9849C32.5804 65.9849 32.6491 66.0033 32.712 66.0402C32.7816 66.0595 32.8412 66.0948 32.8923 66.145C32.9536 66.1812 33.0022 66.2307 33.039 66.2918C33.1112 66.3708 33.1599 66.4631 33.185 66.5688L33.2135 66.786L33.185 67.0033C33.1573 67.0678 33.1296 67.1334 33.1028 67.198L33.0278 67.2995C32.9671 67.3805 32.9574 67.3814 32.8101 67.4907C32.7163 67.5502 32.6148 67.583 32.5066 67.5872C32.4344 67.6074 32.3623 67.6074 32.2894 67.5872C32.2165 67.5872 32.1476 67.5688 32.084 67.5318C32.0151 67.5126 31.9548 67.4773 31.9036 67.427C31.8148 67.3691 31.7452 67.2928 31.6939 67.198C31.6663 67.1334 31.6387 67.0678 31.6118 67.0033L31.5824 66.786L31.6118 66.5688L31.6134 66.562C31.652 66.4261 31.7208 66.3079 31.8197 66.2079L31.9825 66.0821C32.0461 66.0411 32.1124 66.0201 32.1812 65.9991ZM71.3278 66.1619C71.56 66.0981 71.815 66.1652 71.9852 66.3356C72.1555 66.5059 72.2226 66.76 72.1589 66.9924C72.096 67.2189 71.914 67.4026 71.6867 67.4639C71.6188 67.4823 71.55 67.4924 71.4804 67.4891C71.3638 67.4882 71.2548 67.4588 71.1534 67.4002L71.0226 67.2986C70.9587 67.2399 70.9144 67.1703 70.8883 67.0898C70.8472 67.0126 70.8288 66.9295 70.8321 66.8398L70.8314 66.8238C70.8288 66.7919 70.8329 66.76 70.8431 66.729C70.8431 66.6962 70.8481 66.6643 70.8565 66.6333C70.9177 66.4069 71.1022 66.2239 71.3278 66.1619ZM21.2501 63.8901C21.3247 63.8875 21.3943 63.9026 21.4589 63.937C21.5268 63.9588 21.5847 63.9957 21.6333 64.0494C21.687 64.0981 21.7239 64.1568 21.7457 64.2239C21.7801 64.2886 21.7952 64.3582 21.7926 64.4328C21.7926 64.531 21.7675 64.6224 21.7188 64.7063C21.6903 64.7433 21.6618 64.7801 21.6333 64.8162C21.5662 64.8842 21.4865 64.9303 21.3943 64.9563L21.3406 64.9748C21.2618 65.0033 21.1847 65.005 21.1025 64.9942C21.0161 64.9823 20.9363 64.9588 20.866 64.9051C20.7971 64.8649 20.7427 64.8103 20.7025 64.7416L20.6563 64.6325C20.6463 64.5957 20.6421 64.5403 20.6396 64.5016C20.6396 64.4957 20.6396 64.4908 20.6387 64.4848C20.6387 64.4521 20.6488 64.3725 20.6571 64.3397C20.6756 64.2709 20.7133 64.2055 20.7561 64.1501C20.793 64.0923 20.8433 64.0469 20.9054 64.0134L20.9109 64.0092L20.9171 64.005C20.9363 63.9916 20.9566 63.9781 20.9767 63.9638C21.0605 63.9152 21.1519 63.8901 21.2501 63.8901ZM64.5545 63.2944C64.6886 63.2944 64.8136 63.3288 64.9293 63.3959C64.9334 63.3975 64.9376 63.3993 64.941 63.401C65.0518 63.4664 65.1397 63.5546 65.2052 63.6652C65.2723 63.7801 65.3058 63.9044 65.3058 64.0369C65.3058 64.1702 65.2723 64.2936 65.2052 64.4085C65.1397 64.5193 65.0518 64.6073 64.941 64.6728C64.9376 64.6753 64.9334 64.6769 64.9293 64.6786C64.8136 64.7457 64.6886 64.7793 64.5545 64.7801C64.4211 64.7793 64.2962 64.7457 64.1804 64.6786C63.954 64.5461 63.8122 64.2986 63.8122 64.0369C63.8122 63.775 63.954 63.5276 64.1804 63.3959C64.2962 63.3288 64.4211 63.2944 64.5545 63.2944ZM29.729 62.3243L29.7518 62.3238C29.8407 62.3204 29.9236 62.3389 29.9999 62.3801C30.0796 62.406 30.1492 62.4505 30.208 62.5134L30.3304 62.6157L30.366 62.6445C30.3718 62.6494 30.3776 62.6544 30.3832 62.6594C30.4655 62.7424 30.5216 62.8397 30.5535 62.9521C30.5636 63.0168 30.5719 63.0805 30.5787 63.1451C30.597 63.3129 30.4982 63.4849 30.3891 63.604C30.3304 63.667 30.2607 63.7113 30.1803 63.7382C30.1032 63.7785 30.0193 63.7969 29.9303 63.7936C29.7484 63.7777 29.5757 63.739 29.4449 63.5981C29.4297 63.5813 29.4154 63.5637 29.4004 63.5461L29.2956 63.4253C29.2159 63.3448 29.1605 63.2499 29.1304 63.1409C29.1219 63.083 29.1145 63.0259 29.1069 62.9689C29.0993 62.7969 29.1831 62.6358 29.2956 62.5134C29.3994 62.4 29.5755 62.3307 29.729 62.3243ZM25.4959 60.5578C26.368 60.5578 26.3663 61.9111 25.4959 61.9111C24.6245 61.9111 24.6262 60.5578 25.4959 60.5578ZM69.3446 58.6606L69.3721 58.661C69.5164 58.6619 69.6514 58.698 69.7764 58.7709L69.939 58.8959C70.038 58.9966 70.1067 59.1141 70.1454 59.25C70.1545 59.3212 70.1638 59.3926 70.1739 59.4631C70.1781 59.5738 70.1545 59.677 70.1043 59.7726C70.0724 59.8716 70.0171 59.9579 69.939 60.031C69.8661 60.109 69.7805 60.1644 69.6808 60.1963C69.5852 60.2466 69.4821 60.2701 69.3721 60.2659C69.2271 60.265 69.092 60.229 68.9671 60.156C68.9126 60.1141 68.859 60.0721 68.8045 60.031C68.7131 59.9381 68.6475 59.8309 68.6083 59.708L68.599 59.677L68.5697 59.4631C68.5655 59.3532 68.5889 59.25 68.6392 59.1543C68.6711 59.0545 68.7265 58.9689 68.8045 58.8959C68.8774 58.8178 68.9638 58.7625 69.0628 58.7307C69.1503 58.6845 69.2444 58.6609 69.3446 58.6606ZM65.4165 56.1275C65.4945 56.1249 65.5666 56.1409 65.6346 56.1762C65.7041 56.1987 65.7645 56.2382 65.8156 56.2927C65.9239 56.3792 65.9901 56.5519 65.9901 56.692C65.9901 56.8321 65.9239 57.005 65.8156 57.0914C65.7452 57.161 65.6622 57.2096 65.5666 57.2365L65.4165 57.2567C65.2706 57.2634 65.1221 57.1871 65.0181 57.0914C64.9972 57.0721 64.9771 57.0528 64.9561 57.0343C64.8614 56.9471 64.8203 56.817 64.8144 56.692C64.8118 56.6258 64.8262 56.5638 64.8563 56.5059C64.8757 56.4455 64.9091 56.3942 64.9561 56.3497C64.9771 56.3313 64.9972 56.3121 65.0181 56.2927C65.1314 56.1878 65.2638 56.1351 65.4165 56.1275ZM90.3044 51.6149C90.8555 50.9434 90.5346 50.4655 89.7065 50.6316C88.28 50.8246 86.9375 51.7265 85.6812 52.3732C84.31 53.0977 82.8969 53.6953 81.4982 54.3761C82.0753 54.7304 82.5045 55.2854 82.8324 55.9186C83.4869 55.4214 84.3236 55.1836 85.1403 55.1527C86.622 53.733 89.0759 53.4079 90.3044 51.6149ZM25.2025 53.844C25.3519 53.8447 25.4919 53.8798 25.623 53.95L25.651 53.9656L25.8305 54.1048C25.9177 54.1854 25.9789 54.2809 26.015 54.3909C26.0703 54.4966 26.0955 54.6115 26.0913 54.734C26.0955 54.8565 26.0703 54.9706 26.015 55.0763C25.9789 55.187 25.9177 55.2818 25.8305 55.3624C25.781 55.427 25.7173 55.4773 25.641 55.5143C25.5696 55.5436 25.4992 55.5738 25.428 55.604C25.3483 55.6291 25.256 55.6325 25.1697 55.6367C25.0129 55.6359 24.867 55.5964 24.731 55.5176L24.555 55.3817C24.4703 55.3028 24.4098 55.2097 24.3746 55.1015C24.3247 55.0062 24.2994 54.9044 24.2994 54.7957L24.3 54.7659C24.3 54.7593 24.3 54.7516 24.301 54.7441C24.3109 54.6652 24.3219 54.5864 24.3327 54.5076C24.3604 54.3917 24.4133 54.2902 24.4921 54.2047C24.5122 54.1644 24.539 54.1317 24.5735 54.1048C24.6841 53.9941 24.8149 53.9186 24.9659 53.8757C25.0447 53.8657 25.1235 53.8547 25.2025 53.844ZM64.1129 51.6212L64.1384 51.6216C64.2517 51.6216 64.3565 51.6501 64.4538 51.7063C64.4965 51.7391 64.5385 51.7718 64.5804 51.8045C64.6585 51.8825 64.7121 51.9748 64.7414 52.0805L64.7641 52.2465C64.7666 52.333 64.7489 52.4127 64.7095 52.4875C64.6845 52.5646 64.6416 52.6317 64.5804 52.6887C64.5242 52.7499 64.4572 52.7927 64.3792 52.8179C64.3053 52.8573 64.2248 52.875 64.1384 52.8717C64.0261 52.8717 63.9204 52.8431 63.8231 52.786C63.7812 52.7541 63.7384 52.7214 63.6965 52.6887C63.6258 52.6172 63.5748 52.5337 63.5442 52.4389L63.5363 52.4127L63.5138 52.2465C63.5104 52.1602 63.528 52.0805 63.5674 52.0058C63.5925 51.9279 63.6362 51.8607 63.6965 51.8045C63.7535 51.7432 63.8207 51.7005 63.8978 51.6753C63.9649 51.6398 64.0369 51.622 64.1129 51.6212ZM30.1041 50.7126L30.1333 50.713C30.3002 50.7139 30.4553 50.7558 30.5996 50.8397C30.6616 50.8876 30.7238 50.9354 30.7857 50.9841C30.9006 51.0989 30.9795 51.2348 31.024 51.3917L31.0566 51.6367C31.0616 51.7642 31.0348 51.8825 30.9769 51.9924C30.9401 52.1074 30.8763 52.2063 30.7857 52.2902C30.7028 52.38 30.6038 52.4437 30.4889 52.4807C30.379 52.5385 30.2608 52.5654 30.1333 52.5603C29.9664 52.5603 29.8113 52.5184 29.6671 52.4345C29.6051 52.3867 29.543 52.3381 29.4801 52.2902C29.366 52.1744 29.2872 52.0385 29.2427 51.8825L29.21 51.6367C29.205 51.51 29.2318 51.391 29.2897 51.281C29.3266 51.167 29.3903 51.067 29.4801 50.9841C29.564 50.8935 29.6629 50.8296 29.7777 50.7927C29.8792 50.7393 29.9877 50.713 30.1041 50.7126ZM61.1556 48.406C61.2319 48.3858 61.3082 48.3858 61.3845 48.406C61.4985 48.411 61.6051 48.4454 61.7041 48.5083L61.8777 48.6426C61.8801 48.645 61.8827 48.6476 61.8852 48.651C61.99 48.7566 62.0629 48.8817 62.1032 49.0252L62.1334 49.2508C62.1376 49.3674 62.1133 49.4764 62.0605 49.5772C62.029 49.674 61.9769 49.7582 61.9052 49.831L61.8777 49.8581C61.7996 49.942 61.7082 50.0016 61.6017 50.036C61.5347 50.0755 61.4616 50.0948 61.3845 50.0948C61.2705 50.1207 61.1556 50.1158 61.0415 50.0796C60.9736 50.0502 60.9048 50.0217 60.8361 49.9933L60.8142 49.9806C60.5551 49.8389 60.3949 49.5419 60.3949 49.2508C60.3949 48.9596 60.5551 48.6618 60.8142 48.52C60.8219 48.5168 60.8285 48.5125 60.8361 48.5083C60.9351 48.4454 61.0415 48.411 61.1556 48.406Z" fill="#0C0C0C"/>
<path fill-rule="evenodd" clip-rule="evenodd" d="M62.5854 18.8104C61.8264 15.6096 60.1671 12.6309 57.5105 10.2236C49.5163 2.31706 34.8356 6.60859 34.9021 18.5232C34.6153 19.9148 34.4989 21.3457 34.5939 22.7649C34.6331 23.3704 34.8951 24.2155 34.5431 24.7604C33.7492 25.78 33.2878 26.5315 33.558 27.8877C33.7838 29.0718 34.5893 29.9108 35.6765 30.3567C36.3285 30.5439 36.9471 30.9516 37.1887 31.5731C38.6399 34.2312 39.7151 36.4421 42.0031 38.2536C42.5934 38.7199 48.6486 41.5171 50.6437 41.5171C56.4847 41.5171 63.8464 39.4005 63.9685 32.8736C63.9897 31.44 63.7382 29.9898 63.5804 28.5676C63.1965 25.3219 63.3319 21.9587 62.5854 18.8104Z" fill="white"/>
<path fill-rule="evenodd" clip-rule="evenodd" d="M62.4537 17.2094C62.4555 17.1698 62.5122 17.161 62.5232 17.2C62.7403 17.9706 62.8634 18.7556 63.0332 19.5381C63.1967 20.2919 63.3511 21.0479 63.4796 21.8083C63.722 23.2434 63.9263 24.6822 64.1163 26.1248L64.1635 26.4855C64.4938 29.0239 65.0392 31.6683 64.5623 34.2214C64.1553 36.4 62.7908 38.1559 61.0324 39.4432C59.3673 40.6621 57.3486 41.4443 55.3441 41.8891C53.1928 42.3665 50.6428 42.5089 48.8924 40.9308C48.1917 40.2988 49.1469 39.0449 49.9071 39.6152C51.6921 40.9541 53.9629 40.5594 55.9771 40.0266L56.0381 40.0104C57.8059 39.5394 59.5855 38.8254 60.989 37.6209C62.5407 36.2891 63.3079 34.4407 63.3965 32.4136C63.4463 31.2746 63.3401 30.137 63.2256 29.0048L63.2129 28.879C63.0815 27.5842 62.9436 26.29 62.8164 24.9947C62.7003 23.8135 62.6002 22.6255 62.5472 21.4391L62.5225 20.8407C62.4711 19.6342 62.4019 18.4101 62.4537 17.2094ZM41.5187 7.18495C44.4235 5.67212 47.7618 5.13068 50.9944 5.63839C54.1021 6.12648 56.9541 7.73068 59.0859 10.0309C60.1267 11.154 61.0505 12.4531 61.6409 13.8723C61.9341 14.5773 62.1638 15.3128 62.286 16.0682C62.3489 16.4565 62.4107 16.8589 62.4225 17.2526C62.4334 17.6171 62.3264 17.9589 62.3391 18.3295C62.341 18.3875 62.2522 18.3986 62.2387 18.3431C62.1378 17.9299 61.8945 17.6175 61.7419 17.2251C61.6278 16.932 61.4984 16.6459 61.3666 16.3607L61.2535 16.1163C60.9249 15.406 60.5322 14.7249 60.1437 14.0462C59.3613 12.6793 58.3575 11.437 57.1821 10.3887C55.1184 8.54829 52.4709 7.36029 49.7076 7.14636C46.8395 6.92422 43.9305 7.60811 41.4811 9.12304C39.0319 10.6379 37.1799 12.9928 36.2184 15.7041C35.7332 17.0723 35.4653 18.4979 35.403 19.9474C35.3715 20.6811 35.4009 21.4209 35.4523 22.1532L35.4778 22.5025C35.5078 22.9212 35.5283 23.3384 35.4657 23.747C35.9075 23.6092 36.3706 23.5521 36.8353 23.6203C37.5259 23.7216 37.9385 24.0048 38.2483 24.6221C38.2645 24.6543 38.232 24.6865 38.1999 24.6705C37.7983 24.47 37.1485 24.5756 36.7232 24.6807C36.2806 24.7901 35.8819 24.9803 35.5058 25.2376C34.81 25.7131 34.2646 26.4501 34.1308 27.2957C34.0014 28.1125 34.3366 28.9395 34.8996 29.5249C35.1894 29.8264 35.5358 30.0871 35.9237 30.2495C36.3944 30.4467 36.8603 30.4406 37.2768 30.7662C37.5342 30.9674 37.472 31.3118 37.2974 31.5353C38.176 32.499 38.9551 33.5534 39.8336 34.5209C40.2409 34.9694 40.6448 35.4184 41.035 35.8813L41.1807 36.0556C41.5703 36.526 42.1902 37.0229 42.3682 37.6145C42.479 37.9825 42.085 38.4639 41.6868 38.2962C41.0759 38.0389 40.6398 37.3694 40.227 36.8559L40.2001 36.8226C39.7672 36.2905 39.3829 35.7287 39.0315 35.1401L38.916 34.9461C38.2806 33.8772 37.6507 32.7685 37.2456 31.5941C37.2188 31.6216 37.1905 31.6467 37.1606 31.6679C36.577 32.0831 35.7285 31.7639 35.1455 31.4943C34.5953 31.2398 34.0908 30.8569 33.6975 30.3954C32.8423 29.3919 32.4481 28.0923 32.7337 26.7898C32.9757 25.6865 33.7401 24.6134 34.7422 24.0553C34.2796 23.5226 34.0881 22.8045 33.9606 22.1024C33.7979 21.2062 33.7655 20.2877 33.8097 19.3789C33.8978 17.5688 34.3635 15.7845 35.0833 14.1269C36.3712 11.161 38.6482 8.68017 41.5187 7.18495ZM35.4052 26.9761C36.0149 26.8619 36.583 26.8343 37.1711 27.0923C37.8089 27.3725 38.2578 27.8349 38.6751 28.3766C39.1499 28.9929 37.933 29.6661 37.6262 28.848L37.6172 28.8228C37.535 28.5806 37.3879 28.3464 37.2014 28.1309C37.1455 28.2167 37.0707 28.2922 36.9828 28.3354C36.8764 28.3877 36.7139 28.3515 36.6883 28.2155C36.6599 28.0646 36.6913 27.8817 36.7784 27.7539L36.7903 27.7365C36.3673 27.3959 35.8585 27.1472 35.4052 27.0672C35.36 27.0591 35.3605 26.9845 35.4052 26.9761Z" fill="#0C0C0C"/>
<path fill-rule="evenodd" clip-rule="evenodd" d="M54.4946 35.816C53.9309 35.5859 53.4279 35.2021 53.0602 34.7119C52.9323 34.5415 52.8992 34.3615 52.926 34.1969C52.9562 34.0118 53.0656 33.8441 53.2149 33.7316C53.3646 33.6187 53.5519 33.563 53.733 33.5914C53.8903 33.6161 54.047 33.7023 54.1709 33.881L54.1968 33.9167C54.4155 34.2126 54.7003 34.4554 55.025 34.6119C55.3378 34.7627 55.6877 34.8331 56.0498 34.7922C56.7395 34.7142 57.2148 34.3411 57.7201 33.8344C57.7827 33.7705 57.8454 33.7045 57.9083 33.6374C57.9481 33.5767 58.0033 33.5376 58.0645 33.5171C58.1326 33.4944 58.2095 33.4957 58.28 33.5203C58.348 33.544 58.4088 33.589 58.4495 33.6488C58.4883 33.7057 58.5102 33.776 58.5031 33.8569C58.4569 34.382 58.1824 34.8506 57.7926 35.2185C57.3597 35.6272 56.7858 35.91 56.2456 36.0091C55.6503 36.1183 55.0438 36.0401 54.4946 35.816ZM56.5264 27.7153C57.1596 28.1004 58.1245 28.9983 57.4433 29.9529C56.6414 30.7947 55.4869 29.8296 54.9179 29.3931C54.3904 29.0548 53.7977 29.9248 54.2871 30.3198C58.3982 33.3647 60.0666 27.816 56.8467 27.2626C56.4921 27.2016 56.3605 27.5962 56.5264 27.7153ZM49.1592 24.1733C49.2292 23.3045 50.5519 23.1072 50.6834 23.9669C50.8013 24.7371 50.6626 25.4445 50.3158 26.1379C49.9845 26.8003 49.1517 26.4913 49.0887 25.8881C49.0043 25.0795 49.1157 24.7138 49.1592 24.1733ZM59.2277 23.7887C59.4121 23.5471 59.6784 23.3821 59.9974 23.4753C60.9941 23.7667 60.7003 25.1822 60.3503 25.8712C60.1601 26.2454 59.5453 26.3403 59.2675 26.0108C58.8146 25.4736 58.5978 24.4007 59.1735 23.8715C59.1891 23.8441 59.2064 23.8165 59.2277 23.7887ZM50.3018 20.3717L50.4592 20.3441C50.9462 20.2598 51.5518 20.1788 51.8963 20.5706C52.0791 20.7783 52.142 21.1644 51.8963 21.3632C51.4643 21.713 50.9866 21.5774 50.4689 21.6071C50.0422 21.6316 49.6321 21.7022 49.2211 21.8197C48.3195 22.0775 47.5848 22.5482 46.8147 23.0649C46.7136 23.1327 46.6105 23.0034 46.6587 22.9089C47.1033 22.0378 47.9647 21.3223 48.8277 20.8862C49.2882 20.6534 49.7922 20.4602 50.3018 20.3717ZM58.3192 19.9815L58.4397 20.0061C59.751 20.2803 61.4547 20.8281 62.0757 22.1166C62.0994 22.2989 62.0744 22.3379 62.054 22.3634L62.0473 22.3719C62.0305 22.3937 62.0172 22.4237 61.9382 22.4485C61.9163 22.4433 61.8942 22.4378 61.8718 22.4319C61.5872 22.3573 61.362 22.2545 61.1439 22.1478L60.9075 22.0313C60.6333 21.8968 60.3566 21.7671 60.0634 21.6714C59.4376 21.4672 58.7939 21.3234 58.1403 21.2466C57.9986 21.23 57.8622 21.1821 57.7546 21.1001C57.6524 21.0223 57.5744 20.9146 57.5388 20.7714C57.4927 20.5861 57.5059 20.4458 57.6053 20.2786C57.6801 20.153 57.787 20.066 57.9098 20.016C58.035 19.9651 58.1775 19.9531 58.3192 19.9815Z" fill="#0C0C0C"/>
<path fill-rule="evenodd" clip-rule="evenodd" d="M61.1386 21.4766C63.107 21.4766 64.2303 21.9 64.6419 21.933L64.6543 21.9339C64.8255 21.9448 64.9791 21.9592 65.1402 22.0215C65.7327 22.2498 65.8292 22.8715 65.4835 23.2633C65.4592 24.074 65.5658 25.0212 65.3829 25.8346C65.1573 29.2633 63.5455 29.842 62.6292 30.0532C62.1692 30.1592 61.6241 30.2014 61.1354 30.0895C60.3019 30.0584 59.4778 29.7973 58.7728 29.3428C57.7908 28.7092 57.0615 27.7354 56.8249 26.5797C56.7127 26.0289 56.6603 25.4555 56.7213 24.8955L56.7304 24.8184C56.4112 24.6657 56.0413 24.6368 55.6601 24.6233C55.4779 24.6168 55.2984 24.611 55.124 24.6188C54.9536 24.6378 54.7851 24.6631 54.6162 24.6977C54.4317 24.7534 54.2575 24.8453 54.0966 24.9908L54.0855 25.2033C54.0553 25.734 53.9857 26.2663 53.8782 26.787C53.7196 27.5552 53.4645 28.289 52.9215 28.8339C52.7377 29.1085 52.5103 29.3536 52.2341 29.5659C51.2311 30.3385 49.8684 30.6221 48.6178 30.5153C46.0788 30.2985 44.6112 28.2822 44.273 27.4204L44.2528 27.3681C44.0084 26.7274 43.8137 25.8961 43.0417 25.7584L42.8775 25.7289C42.5252 25.6628 42.2001 25.5707 41.9935 25.2268C41.903 25.0767 41.8564 24.9088 41.845 24.7376C41.7245 24.7469 41.6041 24.7557 41.4842 24.7643C40.5275 24.9667 34.7892 25.1383 34.3311 25.1383C34.3311 25.1383 33.4507 25.5091 33.079 25.2218C32.8213 25.0221 32.7366 24.7559 32.8784 24.4543C33.0924 24.0006 34.0797 23.7276 34.5181 23.6412C34.5181 23.6412 41.5929 23.7 42.1021 23.6034C42.4172 23.2784 42.9808 23.3229 43.4517 23.2715C43.8415 22.9934 44.3868 22.8072 44.8176 22.6825C44.9054 22.6493 44.9924 22.6171 45.0769 22.5867C45.8666 22.3054 46.6875 22.1564 47.5209 22.0763C48.3803 21.9946 49.2422 22.0316 50.0965 22.1487C50.4566 22.1976 50.8133 22.2607 51.1674 22.3434C51.8016 22.427 52.4321 22.5648 53.0665 22.7282L53.1934 22.7612C53.8615 22.9364 54.548 23.088 55.2395 22.9692C55.8025 22.8731 56.3439 22.6564 56.863 22.422L56.9306 22.3913C58.072 21.87 59.8545 21.4766 61.1386 21.4766ZM51.0988 23.3828C50.6777 23.2901 50.4978 23.9397 50.9203 24.0326C51.2194 24.0984 51.473 24.2493 51.6443 24.505L51.6623 24.5328C51.8922 24.8988 52.4735 24.561 52.242 24.1927C51.9816 23.7782 51.5769 23.4879 51.0988 23.3828ZM63.4334 22.9801C63.2849 22.8754 63.0603 22.9531 62.9741 23.1009C62.8792 23.2637 62.9414 23.445 63.0804 23.5515L63.0946 23.5619C63.2221 23.6518 63.3464 23.813 63.362 23.9782L63.3633 23.9988C63.38 24.4311 64.0515 24.4333 64.0347 23.9988C64.0184 23.5739 63.7724 23.2188 63.4334 22.9801Z" fill="#0C0C0C"/>
</svg>
