<svg width="100" height="100" viewBox="0 0 100 100" fill="none" xmlns="http://www.w3.org/2000/svg">
<path fill-rule="evenodd" clip-rule="evenodd" d="M50.0387 34.144C51.1657 33.8319 52.4613 33.8682 53.6175 33.948C54.7917 34.0291 56.0517 34.1682 57.1536 34.6068C58.1114 34.9881 58.9191 35.6293 59.4113 36.5481C59.8159 37.3034 60.0057 38.1317 60.1246 38.9731C60.1733 39.3174 60.214 39.6625 60.2527 40.008L60.3323 40.7267C60.3635 41.0015 60.3907 41.2076 60.4454 41.5142C60.5966 42.3623 60.8072 43.0708 61.2773 43.6879C62.4158 45.1816 64.2748 45.6816 65.9653 46.3192C67.0471 46.7272 67.9037 47.4611 68.1414 48.6404C68.3707 49.778 77.089 59.3226 77.9449 60.1272L77.9684 60.1489C78.6323 60.7469 78.5542 61.871 78.6471 62.6917C78.7466 63.5717 78.8414 64.4523 78.9314 65.3332C79.114 67.1228 79.2768 68.9144 79.4196 70.7076C79.978 77.7205 80.2313 84.7578 80.1775 91.7926L80.1741 92.1908C80.1658 93.0836 80.1724 93.9803 80.1324 94.8722C80.0939 95.7295 79.8346 96.5874 79.0406 97.0352C78.3051 97.45 77.3749 97.4135 76.5528 97.4549L76.5036 97.4575C75.6215 97.5058 74.7391 97.5454 73.8562 97.5781C70.2682 97.7109 66.6768 97.7253 63.0867 97.7087C55.9645 97.6759 48.8352 97.5193 41.7197 97.9182C39.9059 98.0199 34.1234 97.402 32.3153 97.5781C30.5871 97.7463 32.0699 98.5942 31.0023 98.5384C27.4912 98.3546 24.1609 97.5709 20.7969 96.6269C20.3767 96.509 20.0553 96.101 20.0606 95.66C20.1231 90.8162 20.2598 85.9737 20.4734 81.1342C20.6636 76.8233 20.9144 72.5151 21.2254 68.2113C21.3607 66.3405 21.5073 64.4705 21.6652 62.6015L21.7336 61.8006C21.8228 60.7677 21.8742 59.7159 22.0772 58.6973C22.278 57.69 22.7336 56.8164 23.3943 56.0358C23.9871 55.3356 30.6988 49.8537 32.3153 48.8159C33.8625 47.8224 35.4872 46.9843 37.0756 46.0636C37.7364 45.6806 38.3711 45.8184 38.9356 45.3482C39.2332 45.1003 43.5517 43.4302 44.7169 42.8791L44.7512 42.8628C45.643 42.4348 46.4636 41.9707 47.0798 41.2306C47.2864 40.9825 47.6915 39.4195 47.6922 38.9201C47.6937 38.028 47.6261 37.0882 47.8951 36.224C48.2168 35.1906 48.9922 34.4337 50.0387 34.144ZM51.9493 57.1467L45.0487 70.5905H49.5359L46.3195 78.0601H53.3829L50.8773 88.5227L65.2062 70.5905H59.8293L65.2062 63.5302H61.4769L65.2062 57.551L51.9493 57.1467Z" fill="white"/>
<path fill-rule="evenodd" clip-rule="evenodd" d="M75.1299 64.7064C75.1139 64.7223 75.0971 64.7383 75.0812 64.7551C75.0997 64.7291 75.1156 64.7021 75.1299 64.6754V64.7064ZM61.719 60.7902C61.0993 61.5823 60.4435 63.1938 59.8414 64C59.755 64.1157 59.6703 64.2316 59.5864 64.3481C59.3365 64.698 59.6703 65.2332 60.0812 65.2106C60.9022 65.1669 61.7223 65.1058 62.5425 65.0437C60.8578 66.9219 59.459 69.2551 57.9118 71.2449C57.8069 71.3783 57.7038 71.5126 57.6006 71.6468C57.209 72.1577 57.6015 72.3893 58.1365 72.2516C58.2472 72.2232 58.3579 72.1947 58.4686 72.167C59.2468 71.9673 60.0242 71.7677 60.8024 71.5688C61.2326 71.458 61.6653 71.3214 62.1014 71.2366C62.2809 71.2022 62.4528 71.2308 62.6222 71.24C62.5408 71.3641 62.4268 71.5881 62.4041 71.6224C62.15 72.0184 61.8943 72.4127 61.6368 72.8053C61.1353 73.5688 60.6313 74.3313 60.1089 75.0805C58.0711 78.0016 55.8731 80.7903 53.6945 83.6049C53.146 84.3129 52.59 85.0135 52.0248 85.7073C52.0273 85.703 52.029 85.6988 52.0315 85.6947C52.5405 84.703 53.0496 83.7123 53.5586 82.7206C54.5263 80.8365 55.4849 78.9472 56.4627 77.068C56.513 76.9698 56.5641 76.8725 56.6153 76.7744C56.8182 76.385 56.4853 75.9808 56.0685 76.0629C54.0353 76.4636 52.0217 76.9561 50.0331 77.5392C49.9437 77.6346 49.8121 77.6625 49.6946 77.6395C49.6147 77.6634 49.5344 77.6864 49.4545 77.7106C49.4787 77.6604 49.5038 77.6106 49.5282 77.5605C49.447 77.4899 49.4065 77.3806 49.4594 77.2441C50.6036 74.2904 52.1725 71.439 54.0313 68.8276C53.9565 68.829 53.8819 68.8301 53.8068 68.8323C51.7665 68.8876 49.7648 69.1804 47.7983 69.7365C47.789 69.5545 47.8989 69.2727 47.9584 69.1385C48.1966 68.6023 48.47 68.0788 48.7258 67.5511C49.249 66.4672 49.7723 65.3843 50.2956 64.3003C50.8072 63.2416 51.3145 62.1796 51.7959 61.1058C52.0483 60.5427 52.3007 59.979 52.5523 59.4153C52.7577 58.9563 52.9196 58.4941 53.0898 58.0244C53.5896 58.1712 60.0074 58.203 61.5672 58.3113C61.9496 58.3381 62.3328 58.3625 62.7161 58.3834C63.0213 58.4011 63.4515 58.4682 63.662 58.1922L63.7417 58.2592C63.049 59.0881 62.3848 59.9396 61.719 60.7902ZM36.6625 45.391C36.6944 45.3767 36.7254 45.3625 36.7564 45.3482C36.7724 45.3709 36.7917 45.3918 36.8118 45.4128C36.8621 45.464 36.9116 45.5193 36.9636 45.5697C36.8629 45.5109 36.7623 45.4513 36.6625 45.391ZM81.5141 92.5378C81.4562 91.3155 81.3917 90.0931 81.3229 88.8708C81.187 86.4816 81.047 84.0923 80.86 81.7064C80.4801 76.8717 80.1262 72.0386 79.5568 67.2214C79.3178 65.2021 78.9841 63.198 78.6495 61.1929C78.6922 61.1543 78.7358 61.1157 78.7786 61.0781C78.7325 61.6266 79.4771 61.974 79.8461 61.427C79.8738 61.386 79.9006 61.3448 79.9275 61.3021C80.247 60.7853 80.9833 58.25 80.9321 58.0352C80.8399 57.6485 80.5833 57.3046 80.3828 56.964C80.2076 56.6661 80.0306 56.3683 79.8512 56.073C79.4931 55.4815 79.1241 54.896 78.7375 54.323C77.9366 53.1368 77.0611 51.9975 76.0297 51.0017C74.9621 49.9698 73.7369 49.1216 72.4715 48.3524C71.8635 47.9832 71.2362 47.6485 70.5972 47.3364C69.9666 47.0293 69.2764 46.6896 68.5972 46.5151C68.5586 46.505 68.5192 46.5588 68.5544 46.5873C68.7347 46.7299 68.9234 46.8641 69.1154 46.9933C68.5955 46.813 68.0596 46.6829 67.5196 46.6367C66.4738 46.2693 65.4155 45.9329 64.3748 45.5495C63.3517 45.1719 62.3438 44.7475 61.6636 43.8532C61.0825 43.0889 60.7152 42.1536 60.4326 41.2425C60.1223 40.2383 59.999 39.1946 59.7122 38.1887C59.6896 38.1073 59.5563 38.0981 59.5386 38.1887C59.334 39.2441 59.3432 40.4304 59.4598 41.4958C59.5822 42.6132 59.8967 43.7098 60.581 44.6183C61.376 45.6745 62.4544 46.2626 63.6679 46.7315C64.6465 47.1108 65.6378 47.4966 66.6399 47.8355C66.5091 47.9212 66.3766 48.0067 66.2399 48.0881C65.6965 48.4111 65.1313 48.698 64.5535 48.9556C63.4985 49.4261 62.3874 49.7786 61.2695 50.0646C59.1889 50.5948 57.0555 50.8641 54.9104 50.8994C50.6185 50.9707 46.2787 50.0714 42.3533 48.3348C41.248 47.8457 40.1687 47.3079 39.1003 46.7433C38.7666 46.5671 38.4311 46.3892 38.0974 46.2063C38.125 46.2047 38.1536 46.2022 38.1812 46.1996C38.9267 46.1292 39.663 45.9858 40.3842 45.7828C41.861 45.3658 43.2765 44.7157 44.6669 44.0755C45.846 43.5327 47.0603 42.9144 47.7807 41.7836C48.1656 41.1787 48.3425 40.469 48.4859 39.7744C48.6461 39.0009 48.8348 38.224 48.9513 37.443C48.9924 37.1695 48.9312 36.7995 48.6377 36.6704C48.5203 36.6191 48.4239 36.5771 48.2922 36.5771C48.0012 36.5771 47.7027 36.7886 47.6331 37.0789C47.4612 37.8029 47.3572 38.547 47.2222 39.2785C47.1056 39.911 46.9991 40.5714 46.6578 41.1275C46.0615 42.1016 44.8925 42.5998 43.9047 43.0739C42.6526 43.6745 41.3998 44.26 40.0991 44.7475C39.5263 44.9622 38.9435 45.1569 38.3523 45.3162C38.3758 45.1712 38.3557 45.0184 38.2701 44.9035C38.1276 44.7139 37.9657 44.5881 37.7821 44.443C37.5825 44.2852 37.3141 44.2031 37.0785 44.2727C37.0785 44.2735 37.0776 44.2727 37.0776 44.2727C36.982 44.2517 36.8764 44.26 36.7673 44.3095C36.4302 44.464 36.094 44.6199 35.7577 44.7786C30.9198 47.0554 26.2195 49.7298 22.6596 53.8028C22.1464 54.3901 21.6659 55.0076 21.2155 55.6443C20.7778 56.2626 20.2361 56.9338 20.1153 57.7005C20.1052 57.7643 20.1983 57.7937 20.2143 57.7282C20.2428 57.6099 20.2813 57.4941 20.3291 57.3817C20.2294 57.7308 20.2352 58.1016 20.3761 58.4664C20.543 58.8959 20.8491 59.1804 21.2357 59.2936C20.8474 60.9959 20.5866 62.7207 20.3769 64.4647C20.0759 66.9773 19.862 69.4959 19.701 72.0209C19.379 77.0605 19.2356 82.125 19.3396 87.1737C19.369 88.6006 19.4176 90.0277 19.4914 91.4539C19.5283 92.167 19.5685 92.8792 19.6147 93.5922C19.6599 94.2937 19.623 95.0663 20.2344 95.4363C20.2419 95.464 20.2503 95.4907 20.2579 95.5184C20.4063 96.036 21.068 95.87 21.13 95.4001C21.1308 95.3952 21.1317 95.3892 21.1325 95.3843C21.6323 95.0026 21.5569 94.3667 21.52 93.7567C21.4805 93.0982 21.4386 92.4405 21.4034 91.7828C21.3363 90.5209 21.2793 89.2593 21.2281 87.9966C21.1283 85.5 21.0721 83 21.0537 80.5016C21.0168 75.5042 21.3053 70.5142 21.6474 65.5311C21.7908 63.4463 21.9585 61.3708 22.0097 59.2869C22.2772 59.1476 22.3594 58.7517 22.2252 58.4849C25.3934 60.6476 28.3336 63.2332 30.6942 66.2383C31.0884 66.7399 31.4649 67.2567 31.8255 67.7828C31.9429 67.9538 32.0544 68.1318 32.1668 68.3095C32.0578 68.8053 31.9731 69.3095 31.8624 69.7852C31.6343 70.7677 31.5379 71.7869 31.407 72.7853C31.1412 74.813 30.9542 76.859 30.7957 78.8976C30.4837 82.9236 30.2523 86.9489 30.1793 90.9866C30.1391 93.2701 30.0854 95.5679 30.186 97.8507C30.1114 98.2969 30.5131 98.7333 30.9332 98.7895C31.3014 98.8389 31.6452 98.6477 31.8062 98.3397C32.9534 98.4823 34.1308 98.5479 35.2705 98.5562C36.8059 98.5671 38.3414 98.5655 39.8769 98.5327C42.9487 98.4656 46.0196 98.3868 49.0905 98.2954C55.2324 98.1141 61.3743 97.9321 67.5171 97.75C69.2203 97.6996 70.9234 97.6494 72.6266 97.599C73.3948 97.5764 74.3525 97.7978 74.9579 97.2048C75.0619 97.1023 75.1424 96.9823 75.1995 96.854C75.3806 96.8993 75.6028 96.8548 75.7219 96.7147C75.9441 96.4521 76.1077 96.2089 76.0993 95.8448C76.0917 95.5042 75.9978 95.1452 75.9492 94.8079C75.8569 94.1745 75.768 93.5411 75.6833 92.9068C75.5164 91.6535 75.3605 90.3985 75.2171 89.1426C74.9236 86.5747 74.6569 84.0008 74.4489 81.4245C74.0363 76.3298 73.9198 71.2081 73.934 66.0974C73.9357 65.6402 73.9382 65.1829 73.9407 64.7256C73.96 64.75 73.981 64.7726 74.0036 64.792C74.0221 64.8079 74.0405 64.8238 74.059 64.8407C74.2736 65.0294 74.6309 65.1267 74.8883 64.948C75.2045 64.7433 75.4225 64.4362 75.6691 64.1586C75.9282 63.8675 76.1949 63.5839 76.4641 63.3021C76.9857 62.7568 77.5249 62.234 78.075 61.7172C78.1195 61.6762 78.1639 61.6343 78.2083 61.5939C78.2117 63.2206 78.21 64.8465 78.2536 66.4724C78.319 68.8876 78.4499 71.3004 78.5698 73.7123C78.8079 78.4882 79.0545 83.2625 79.2918 88.0377C79.3581 89.3709 79.421 90.7047 79.4872 92.0377C79.5208 92.7047 79.5535 93.3716 79.5853 94.0386C79.6021 94.3993 79.6189 94.761 79.6356 95.1217C79.6541 95.5093 79.6298 95.9236 79.7606 96.292C80.0583 97.1342 81.3447 97.2533 81.5921 96.292C81.7472 95.6888 81.6282 94.9907 81.6005 94.3716C81.572 93.761 81.5435 93.1493 81.5141 92.5378Z" fill="#0C0C0C"/>
<path fill-rule="evenodd" clip-rule="evenodd" d="M69.6708 23.7577C69.6374 21.8783 69.6005 19.9614 69.3213 18.1003C69.0482 16.2809 68.2971 14.6362 67.0063 13.315C64.2647 10.5085 60.2906 9.82306 56.5914 9.19487L50.2667 8.12079C48.3372 7.79319 46.2787 7.26954 44.3292 7.73413C43.3686 7.96308 42.5528 8.49496 41.8072 9.12423C41.0885 9.73078 40.3159 10.3821 39.8289 11.1981C39.3411 12.0153 39.1733 12.9706 39.0147 13.8949C38.8358 14.9369 38.6969 15.9871 38.5982 17.0398C38.4003 19.1488 38.3733 21.2737 38.5168 23.3872C38.5863 24.4122 38.6969 25.4344 38.8382 26.452C38.9082 26.9566 38.9874 27.46 39.0767 27.9616C39.1031 28.1095 39.1231 28.2732 39.1501 28.4387C38.9506 29.0063 38.8372 29.5941 38.8464 30.1794C38.8733 31.9036 40.328 32.9891 41.7946 33.5719C42.6449 33.9098 43.5339 34.1394 44.3694 34.5169C45.2483 34.914 45.8466 35.5577 46.4475 36.292C47.5936 37.6925 48.887 38.9513 50.3639 40.0014C53.495 42.228 57.4609 43.2811 61.2601 42.4818C62.1716 42.29 63.0913 41.9922 63.9107 41.5434C64.7757 41.0697 65.4263 40.3832 65.9725 39.5716C66.9868 38.0648 67.7142 36.368 68.2645 34.6414C68.8258 32.8802 69.2242 31.1158 69.4415 29.2793C69.658 27.4487 69.7036 25.5996 69.6708 23.7577Z" fill="white"/>
<path fill-rule="evenodd" clip-rule="evenodd" d="M49.4885 1.57413C52.1058 1.21398 55.7182 2.38453 57.0217 4.74477C63.2446 3.27715 71.0933 3.22908 76.2222 8.11473C81.5741 13.9102 74.8519 21.5516 70.3945 23.2744C70.719 24.8521 70.213 34.96 66.6326 39.4686C63.7911 43.2887 57.174 45.0517 54.112 40.4889L54.0881 40.4512C53.7601 39.9243 54.0426 39.9412 54.3793 40.3332C57.3777 42.9709 61.4543 43.016 64.5958 40.2323C70.4834 35.1442 69.8764 22.6685 67.0748 15.4511C59.0972 14.5746 50.5557 16.9935 45.0457 23.001L45.4183 25.2449C45.4818 25.6272 45.5539 26.0092 45.6089 26.3928C45.6442 26.6386 45.6481 26.8831 45.4779 27.0821C44.9158 27.739 43.9684 26.7519 43.1889 26.3593C42.9588 26.3269 42.7283 26.3144 42.5022 26.3303C38.7572 26.8129 39.4951 34.0805 43.6111 32.8066C43.9569 32.5911 44.254 32.6569 44.3882 32.9696C45.3693 33.8686 46.0162 35.472 47.6461 37.0162C48.2213 37.5955 48.7446 38.0802 49.3915 38.5449C49.7715 38.9292 50.918 39.3212 50.5546 39.979C49.8673 41.4758 45.8142 36.774 45.0976 35.4738C42.8525 36.3607 40.3643 36.0594 38.0377 35.8427C25.7631 35.2042 27.4017 22.2605 37.4629 14.0884C39.3568 12.6936 41.4463 11.5558 43.6184 10.6802C43.9149 10.5606 43.7853 10.0735 43.4846 10.1948C42.0474 10.7742 40.6464 11.4639 39.3108 12.2621L39.3088 11.7849C39.3068 10.9811 39.3194 10.1443 39.459 9.40987C39.5288 8.90098 39.6461 8.35744 39.8267 7.94854C40.05 6.69494 43.5483 2.39191 49.4885 1.57413ZM42.3384 27.9988C42.5279 27.8187 42.8817 28.0335 43.0504 28.0281C43.4819 28.0872 43.8918 28.2695 44.2115 28.4945C44.4225 28.6128 44.5705 28.7238 44.6941 28.826L44.6974 28.8251C44.6965 28.8251 44.6953 28.826 44.6943 28.8263L44.706 28.8341C44.8859 28.9621 45.5448 29.6826 45.1286 29.4889C45.0975 29.4485 45.0657 29.4097 45.0337 29.3717C45.0303 29.3769 45.0255 29.3821 45.0198 29.387L45.0432 29.4217C45.397 29.9542 44.7861 29.3932 44.6921 29.2442C44.6877 29.2478 44.6827 29.2503 44.6777 29.2529L44.8001 29.4019C44.8172 29.423 44.8307 29.4399 44.8418 29.4542L44.8676 29.4791C45.2767 29.8814 45.2895 30.2434 44.8142 29.6487C44.8329 29.6767 44.848 29.7064 44.8501 29.7327L44.8782 29.7687C45.2514 30.2497 44.9479 30.0788 44.7624 29.8734L44.7469 29.8557L44.7501 29.8605C44.9226 30.1264 44.5803 29.9398 44.5199 29.7976L44.5173 29.7912C44.4514 29.7374 44.4108 29.677 44.3969 29.6618L44.3944 29.6592C44.0735 29.3304 43.6084 29.0521 43.2134 28.9257C43.1561 28.9148 43.0981 28.9061 43.0396 28.8999C42.802 28.8468 42.5619 28.8105 42.3192 28.7909C42.2895 28.7874 42.2594 28.7655 42.2369 28.7374C41.8699 28.725 41.9832 28.5745 42.1355 28.5465L42.1381 28.5461L42.1079 28.5435C41.8724 28.5205 41.7116 28.436 41.9497 28.3841L41.9799 28.3781C41.9762 28.3723 41.9729 28.3665 41.9697 28.3608C41.7658 28.3384 41.8989 28.14 42.0121 28.188C41.9644 28.0322 42.1821 28.11 42.2093 28.0868C42.23 28.0639 42.2558 28.0436 42.2706 28.0425C42.3362 27.9962 42.3044 28.0004 42.3384 27.9988ZM43.5862 25.4766L43.5384 25.5045C43.4998 25.5271 43.46 25.5421 43.4201 25.5509C43.4765 25.5749 43.5321 25.6008 43.5872 25.6285C43.5864 25.5947 43.5857 25.5609 43.5857 25.5271L43.5862 25.4766Z" fill="#0C0C0C"/>
<path fill-rule="evenodd" clip-rule="evenodd" d="M61.902 34.1738C62.0307 33.9501 62.3269 33.7428 62.5979 33.7746C63.8121 33.917 63.81 35.3897 63.3411 36.2494C62.9255 37.0117 62.0651 37.4592 61.2041 37.3939C60.2995 37.3252 59.5287 36.7931 59.1895 35.9466C58.9652 35.3866 58.8615 34.3528 59.4583 33.9765C59.4693 33.9695 59.4876 33.9712 59.4964 33.9814C59.7826 34.3143 59.7938 34.8143 60.0443 35.185C60.2772 35.5298 60.6392 35.8145 61.0632 35.8585C61.3798 35.8914 61.7002 35.7771 61.824 35.4927C61.8911 35.3389 61.8834 35.2553 61.8582 35.1495L61.8353 35.0575C61.756 34.7352 61.7204 34.4898 61.902 34.1738ZM62.2266 27.7154C62.8599 28.1004 63.8248 28.9983 63.1435 29.953C62.3416 30.7947 61.1871 29.8296 60.6182 29.3931C60.0906 29.0549 59.4979 29.9249 59.9874 30.3199C64.0985 33.3648 65.7669 27.8161 62.5469 27.2626C62.1924 27.2016 62.0607 27.5962 62.2266 27.7154ZM55.5394 25.0749C55.9281 24.4915 56.8153 24.5774 57.0294 25.2697C57.1454 25.6447 56.9852 25.9818 56.9935 26.3563C57.0005 26.6726 56.9798 27.0251 56.8828 27.3315C56.6618 28.0302 56.0337 28.5236 55.2906 28.5032C54.5499 28.4828 53.8976 28.0138 53.5874 27.3533C53.2761 26.6903 53.342 26.0042 53.5693 25.33C53.5802 25.2976 53.6226 25.2819 53.6482 25.3092C53.9168 25.5948 54.1135 25.8963 54.317 26.2161L54.5255 26.5439C54.6848 26.7907 54.9164 27.106 55.214 27.0862L55.2587 27.0818C55.3414 27.0747 55.3287 27.0911 55.3925 26.9783C55.422 26.9261 55.4166 26.8292 55.4309 26.7676L55.4358 26.7468L55.4331 26.7356C55.4268 26.7057 55.4206 26.6496 55.4155 26.552L55.4144 26.5305C55.3929 26.0744 55.264 25.4882 55.5394 25.0749ZM65.3922 25.4633C65.3225 24.7171 66.3711 24.5514 66.7197 25.1035C66.9015 25.3914 66.9545 25.7531 66.9947 26.0958L67.0135 26.2584C67.0547 26.6103 67.0711 26.9764 66.9184 27.3047C66.6779 27.8217 66.1548 28.0951 65.5906 28.0518C65.0518 28.0103 64.5603 27.6978 64.3011 27.2234C64.0701 26.8001 63.8404 25.9736 64.121 25.5321C64.1379 25.5053 64.1718 25.5019 64.195 25.5225C64.4602 25.758 64.5034 26.1875 64.661 26.4943C64.8237 26.8107 65.0703 27.1191 65.444 27.1672C65.8016 27.2132 65.9382 27.0178 65.847 26.6768C65.7293 26.2365 65.4365 25.937 65.3922 25.4633ZM55.8226 20.6389L55.9941 20.5732C56.5816 20.3512 57.3883 20.0945 57.8659 20.5725C58.1606 20.8672 58.2167 21.3013 58.0064 21.661C57.7516 22.0966 57.2944 22.1074 56.853 22.1716C56.3509 22.2445 55.8403 22.3833 55.3729 22.5811C54.8463 22.804 54.3577 23.0819 53.8789 23.3922C53.4239 23.6871 52.9705 24.169 52.4258 24.2599C52.4036 24.2636 52.3783 24.254 52.3725 24.2296C52.2489 23.6969 52.5926 23.1726 52.8994 22.757C53.2705 22.2538 53.7203 21.8408 54.2229 21.4705C54.708 21.1131 55.2624 20.8548 55.8226 20.6389ZM66.4952 22.5329L66.5476 22.5237C66.9039 22.4644 67.2268 22.4781 67.4953 22.7604C67.7002 22.9757 67.7792 23.2548 67.6815 23.5396C67.5914 23.8022 67.3898 24.0691 67.0972 24.1241C66.1094 24.31 65.0153 24.2793 64.0225 24.1385C63.5683 24.0741 63.1101 23.9953 62.6677 23.8709L62.4641 23.8119C62.0948 23.7064 61.672 23.5961 61.4037 23.3244C61.3072 23.2267 61.3628 23.087 61.4782 23.0417C61.9463 22.8583 62.588 22.9559 63.0871 22.9416C63.6677 22.925 64.2493 22.8814 64.8272 22.8214C65.3919 22.7627 65.9383 22.6351 66.4952 22.5329Z" fill="#0C0C0C"/>
<path fill-rule="evenodd" clip-rule="evenodd" d="M68.1116 29.1439C66.8531 29.7502 65.0972 28.8559 64.251 27.919C63.943 27.5779 63.7053 26.602 63.8238 25.9831C64.1447 24.3068 65.3506 23.3008 66.6237 22.9572C68.3885 22.4809 70.1644 23.6876 69.9574 25.1116C69.7611 26.4612 69.4636 28.4188 68.1116 29.1439ZM59.5453 25.9239C59.4444 27.7507 57.9779 29.3496 56.2253 29.8233C53.4014 30.6116 52.0058 28.6258 51.3736 26.4864C51.3108 26.2738 51.1632 25.625 51.5594 25.0685C53.1178 22.8793 56.9093 23.2524 58.803 23.8534C59.3573 24.3837 59.5839 25.1491 59.5453 25.9239ZM69.4791 22.7732C69.4782 22.7742 69.4772 22.7752 69.4764 22.7763C69.4699 22.7723 69.4635 22.7683 69.4569 22.7644C69.4642 22.7674 69.4719 22.77 69.4791 22.7732ZM71.8417 22.9843C71.6777 21.1244 65.8442 21.8366 65.1621 21.989C63.3008 22.5367 61.6931 24.0266 59.612 23.3716C57.4557 20.967 50.1944 21.6566 48.6722 22.8815C48.384 22.7685 48.0337 22.8291 47.6624 22.9358C45.756 22.8669 37.0527 23.5244 38.8328 25.9586C39.103 26.1461 39.373 25.9553 39.3804 25.569C48.6606 22.2178 47.761 25.3568 48.8616 24.9902C49.0297 25.0386 49.205 25.0692 49.3584 25.1014C50.2103 25.3756 50.4995 25.2909 50.6117 26.2475C51.3826 33.6343 61.2156 31.0848 60.4091 25.0258C61.2076 24.9818 61.9061 24.6364 62.7505 24.9737C63.3367 30.6815 67.9282 30.9118 69.3099 28.9332C70.3519 27.5599 69.9387 25.4874 71.3709 24.407C71.9363 24.8804 71.9727 23.2829 71.8417 22.9843Z" fill="#0C0C0C"/>
</svg>
